<svg width="151" height="150" viewBox="0 0 151 150" fill="none" xmlns="http://www.w3.org/2000/svg">
<g clip-path="url(#clip0_1_1258)">
<path d="M44.6589 88.2443C38.8572 82.0416 28.8811 84.4252 26.1245 92.0731C25.0197 90.8588 22.1847 87.7346 22.105 87.6546C21.4751 87.0247 21.1279 86.1868 21.1279 85.2956V49.9961C21.1279 44.309 16.5011 39.6821 10.814 39.6821C5.12686 39.6821 0.5 44.309 0.5 49.9961V100.004C0.5 103.153 1.72666 106.114 3.95322 108.341C4.03906 108.427 2.81064 107.297 22.4328 125.267C23.5271 126.383 24.1291 127.855 24.1291 129.42V147.07C24.1291 148.688 25.441 150 27.0588 150H62.2625C63.8803 150 65.1922 148.688 65.1922 147.07V111.352C65.1922 110.609 64.9098 109.894 64.4021 109.351L44.6589 88.2443ZM59.3328 144.141H29.9885V129.421C29.9885 126.271 28.7624 123.311 26.5353 121.083C26.4374 120.986 27.1256 121.622 8.05566 104.157C6.96143 103.041 6.35938 101.569 6.35938 100.004V49.9961C6.35938 47.5398 8.35772 45.5415 10.814 45.5415C13.2702 45.5415 15.2683 47.5398 15.2683 49.9961V85.2956C15.2683 87.7056 16.1908 89.9726 17.8657 91.6976C20.5684 94.6715 34.2107 109.684 36.9289 112.675C38.019 113.874 39.8718 113.959 41.0674 112.873C42.2647 111.785 42.3535 109.932 41.2651 108.734L32.3577 98.9321C30.6896 96.6918 31.0707 93.4855 33.321 91.7119C35.4729 90.0153 38.5074 90.245 40.3798 92.2466L59.3328 112.509V144.141Z" fill="white"/>
<path d="M140.186 39.6821C134.499 39.6821 129.872 44.309 129.872 49.9961V85.2956C129.872 86.1868 129.526 87.0244 128.895 87.6546C128.82 87.7302 125.626 91.2481 124.876 92.0731C122.12 84.4258 112.143 82.0419 106.341 88.2443L86.598 109.351C86.0903 109.894 85.8079 110.609 85.8079 111.352V147.07C85.8079 148.688 87.1198 150 88.7375 150H123.941C125.559 150 126.871 148.688 126.871 147.07V129.421C126.871 127.856 127.473 126.383 128.567 125.268C147.973 107.496 146.96 108.428 147.047 108.341C149.274 106.114 150.5 103.154 150.5 100.004V49.9961C150.5 44.309 145.873 39.6821 140.186 39.6821ZM144.641 100.004C144.641 101.569 144.039 103.041 142.944 104.157C123.791 121.698 124.558 120.99 124.465 121.083C122.238 123.311 121.012 126.271 121.012 129.421V144.141H91.6672V112.509L110.62 92.2469C112.492 90.2462 115.526 90.0159 117.679 91.7122C119.926 93.4832 120.313 96.6886 118.642 98.9324L109.735 108.735C108.646 109.932 108.735 111.785 109.932 112.873C111.129 113.961 112.982 113.873 114.071 112.675C116.828 109.642 130.448 94.6533 133.134 91.6978C134.809 89.9729 135.731 87.7056 135.731 85.2959V49.9961C135.731 47.5398 137.73 45.5415 140.186 45.5415C142.642 45.5415 144.641 47.5401 144.641 49.9961V100.004Z" fill="white"/>
<path d="M99.9157 26.9536H93.1499C91.5321 26.9536 90.2202 28.2655 90.2202 29.8833V32.825C90.2202 39.9389 85.1474 45.8891 78.4296 47.2514V32.813H81.5793C83.1971 32.813 84.509 31.5011 84.509 29.8833C84.509 28.2655 83.1971 26.9536 81.5793 26.9536H69.7147C68.0969 26.9536 66.785 28.2655 66.785 29.8833C66.785 31.5011 68.0969 32.813 69.7147 32.813H72.5703V47.2514C65.8525 45.8894 60.7797 39.9389 60.7797 32.825V29.8833C60.7797 28.2655 59.4678 26.9536 57.8501 26.9536H51.0842C49.4665 26.9536 48.1545 28.2655 48.1545 29.8833C48.1545 31.5011 49.4665 32.813 51.0842 32.813H54.9204V32.825C54.9204 43.1776 62.6058 51.7654 72.5703 53.1922V59.3117H69.7147C68.0969 59.3117 66.785 60.6233 66.785 62.2414C66.785 63.8592 68.0969 65.1711 69.7147 65.1711H81.5793C83.1971 65.1711 84.509 63.8592 84.509 62.2414C84.509 60.6233 83.1971 59.3117 81.5793 59.3117H78.4296V53.1922C88.3941 51.7654 96.0795 43.1773 96.0795 32.825L99.9157 32.813C101.533 32.813 102.845 31.5011 102.845 29.8833C102.845 28.2652 101.533 26.9536 99.9157 26.9536Z" fill="white"/>
<path d="M117.423 41.9235C117.423 18.8065 98.6167 0 75.5 0C52.3833 0 33.5764 18.8065 33.5764 41.9235C33.5764 65.0402 52.383 83.8471 75.5 83.8471C98.6169 83.8471 117.423 65.0402 117.423 41.9235ZM75.5 77.9874C55.6141 77.9874 39.4358 61.8091 39.4358 41.9232C39.4358 22.0377 55.6141 5.85938 75.5 5.85938C95.3858 5.85938 111.564 22.0377 111.564 41.9235C111.564 61.8094 95.3858 77.9874 75.5 77.9874Z" fill="white"/>
</g>
<defs>
<clipPath id="clip0_1_1258">
<rect width="150" height="150" fill="white" transform="translate(0.5)"/>
</clipPath>
</defs>
</svg>
