<svg width="151" height="150" viewBox="0 0 151 150" fill="none" xmlns="http://www.w3.org/2000/svg">
<g clip-path="url(#clip0_1_1268)">
<path d="M72.5703 64.7461H69.7147C68.0969 64.7461 66.785 66.0577 66.785 67.6758C66.785 69.2938 68.0969 70.6055 69.7147 70.6055H81.5793C83.1971 70.6055 84.509 69.2938 84.509 67.6758C84.509 66.0577 83.1971 64.7461 81.5793 64.7461H78.4296V58.597C88.3941 57.1702 96.0795 48.5821 96.0795 38.2298L99.9157 38.2178C101.533 38.2178 102.845 36.8402 102.845 35.2222C102.845 33.6041 101.533 32.2266 99.9157 32.2266H93.1499C91.5321 32.2266 90.1484 33.67 90.1484 35.2878V38.2295C90.1484 45.3434 85.1474 51.2938 78.4296 52.6559V38.0859H81.5793C83.1971 38.0859 84.509 36.774 84.509 35.1562C84.509 33.5385 83.1971 32.2266 81.5793 32.2266H69.7147C68.0969 32.2266 66.785 33.5385 66.785 35.1562C66.785 36.774 68.0969 38.0859 69.7147 38.0859H72.5703V52.6559C65.8525 51.2938 60.8515 45.3434 60.8515 38.2295V35.2878C60.8515 33.67 59.4678 32.2266 57.8501 32.2266H51.0842C49.4665 32.2266 48.1545 33.5385 48.1545 35.1562C48.1545 36.774 49.4665 38.0859 51.0842 38.0859H54.9921V38.2295C54.9921 48.5821 62.6058 57.1699 72.5703 58.5967V64.7461Z" fill="black"/>
<path d="M75.5 0C34.0499 0 0.5 33.544 0.5 75V91.1792C0.5 98.2799 5.48047 104.22 12.2188 105.581V111.795C12.2188 116.641 16.2093 120.703 21.0556 120.703H24.5287C25.7313 123.926 28.9938 126.562 32.8221 126.562H41.6949C46.5412 126.562 50.5977 122.524 50.5977 117.678V73.5053C50.5977 68.659 46.5412 64.7461 41.6949 64.7461H32.8221C28.9938 64.7461 25.7316 67.0898 24.529 70.6055H21.0556C20.0791 70.6055 19.1404 70.7648 18.2621 71.0602C20.2766 41.3054 45.0975 17.5781 75.529 17.5781C105.657 17.5781 130.433 41.1993 132.704 71.0247C131.836 70.7367 130.909 70.6055 129.945 70.6055H126.471C125.269 67.0898 122.006 64.7461 118.178 64.7461H109.305C104.459 64.7461 100.402 68.659 100.402 73.5053V117.678C100.402 122.524 104.459 126.562 109.305 126.562H118.178C122.006 126.562 125.269 123.926 126.471 120.703H129.944C134.791 120.703 138.781 116.641 138.781 111.795V105.581C140.832 105.138 142.924 104.209 144.641 102.913V129.42C144.641 132.671 141.996 135.352 138.745 135.352H94.2392C92.934 130.371 88.3244 126.562 82.8541 126.562H74.0293C67.548 126.562 62.2748 131.8 62.2748 138.281C62.2748 144.763 67.548 150 74.0293 150H82.8541C88.3247 150 92.934 146.191 94.2392 141.211H138.745C145.227 141.211 150.5 135.902 150.5 129.42C150.5 123.47 150.5 82.3014 150.5 75C150.5 33.5499 116.956 0 75.5 0ZM82.8541 144.141H74.0293C70.7785 144.141 68.1342 141.532 68.1342 138.281C68.1342 135.03 70.7785 132.422 74.0293 132.422H82.8541C86.1049 132.422 88.7495 135.031 88.7495 138.281C88.7495 141.532 86.1046 144.141 82.8541 144.141ZM6.35938 91.1792V91.1133H12.2188V99.5168C8.70312 98.3057 6.35938 95.0253 6.35938 91.1792ZM29.7969 73.5053C29.7969 71.8898 31.2066 70.6055 32.8221 70.6055H41.6949C43.3104 70.6055 44.7383 71.8901 44.7383 73.5053V117.678C44.7383 119.293 43.3104 120.703 41.6949 120.703H32.8221C31.2066 120.703 29.7969 119.293 29.7969 117.678C29.7969 111.113 29.7969 80.1064 29.7969 73.529V73.5053ZM21.0556 76.4648H23.9375V114.844H21.0556C19.4401 114.844 18.0781 113.41 18.0781 111.795C18.0781 108.776 18.0781 83.4639 18.0781 79.3887C18.0781 77.7732 19.4401 76.4648 21.0556 76.4648ZM75.4994 11.7188C40.6209 11.7188 12.2188 40.0895 12.2188 74.9997V85.2539H6.35938V75C6.35938 36.8757 37.3757 5.85938 75.5 5.85938C113.624 5.85938 144.641 36.8757 144.641 75V85.2958V85.2539H138.781C138.781 81.8552 138.781 78.8584 138.781 75.5215C138.781 40.8788 110.469 11.7188 75.4994 11.7188ZM121.203 117.678C121.203 119.293 119.793 120.703 118.178 120.703H109.305C107.69 120.703 106.262 119.293 106.262 117.678V73.5053C106.262 71.8898 107.69 70.6055 109.305 70.6055H118.178C119.793 70.6055 121.203 71.8901 121.203 73.5053V117.678ZM132.922 111.795C132.922 113.41 131.56 114.844 129.944 114.844H127.062V76.4648H129.944C131.56 76.4648 132.922 77.7732 132.922 79.3884V111.795ZM138.781 99.5168V91.1133H144.641V91.1792C144.641 95.0253 142.297 98.3057 138.781 99.5168Z" fill="black"/>
</g>
<defs>
<clipPath id="clip0_1_1268">
<rect width="150" height="150" fill="white" transform="translate(0.5)"/>
</clipPath>
</defs>
</svg>
