<svg width="151" height="150" viewBox="0 0 151 150" fill="none" xmlns="http://www.w3.org/2000/svg">
<path d="M103.439 94.933H125.496C131.165 94.933 135.778 90.2044 135.778 84.5353C135.778 78.8662 131.166 74.137 125.496 74.137H112.113V52.9578C112.113 41.6131 103.02 32.252 91.6756 32.252H89.2472C92.5605 29.0301 94.6047 24.2116 94.6047 19.0717C94.6044 8.5375 86.0341 0 75.5001 0C64.9662 0 56.3956 8.5211 56.3956 19.0553C56.3956 24.1954 58.4398 29.0301 61.7531 32.252H59.3246C47.98 32.252 38.8874 41.6131 38.8874 52.9578V74.137H25.5039C19.8347 74.137 15.2224 78.8659 15.2224 84.5353C15.2224 90.2047 19.8347 94.933 25.5039 94.933H47.5611C49.7084 94.933 51.7751 94.2344 53.5325 93.2248V104.233L27.2396 118.555C20.3139 122.332 16.9719 130.267 19.1394 137.85C21.6947 146.792 31.0139 151.94 39.9433 149.314L75.4931 138.855L111.059 149.314C119.964 151.933 129.321 146.817 131.88 137.85C134.044 130.264 130.683 122.33 123.76 118.555L97.4675 104.233V93.2248C99.2252 94.2344 101.292 94.933 103.439 94.933ZM62.2537 19.1373C62.2537 11.8332 68.196 5.89084 75.5001 5.89084C82.8042 5.89084 88.7466 11.8332 88.7466 19.1373C88.7466 26.4414 82.8042 32.3835 75.5001 32.3835C68.196 32.3835 62.2537 26.4411 62.2537 19.1373ZM47.5611 89.075H25.5039C23.0649 89.075 21.0802 86.9743 21.0802 84.5353C21.0802 82.0963 23.0646 79.995 25.5039 79.995H41.6791C43.2965 79.995 44.7455 78.7997 44.7455 77.1823V52.9581C44.7455 44.8433 51.2098 38.1103 59.3246 38.1103H91.6753C99.7902 38.1103 106.255 44.8433 106.255 52.9581V77.1823C106.255 78.7997 107.703 79.995 109.321 79.995H125.496C127.935 79.995 129.92 82.096 129.92 84.5353C129.92 86.9743 127.935 89.075 125.496 89.075H103.439C100.189 89.075 97.4675 86.3141 97.4675 83.0643C97.4675 80.2147 97.4675 58.7224 97.4675 55.8991C97.4675 54.2814 96.1559 52.9701 94.5385 52.9701C92.9208 52.9701 91.6095 54.2814 91.6095 55.8991V103.135H59.3903C59.3903 96.4034 59.3903 62.6886 59.3903 55.8991C59.3903 54.2814 58.0789 52.9701 56.4612 52.9701C54.8438 52.9701 53.5322 54.2814 53.5322 55.8991V83.0643C53.5325 86.3141 50.8112 89.075 47.5611 89.075ZM120.994 123.744C125.494 126.198 127.654 131.333 126.247 136.265C124.615 141.984 118.597 145.431 112.712 143.7L83.0854 134.985C85.0139 132.775 85.9345 129.76 85.4163 126.702C90.0052 127.956 96.9034 129.838 107.319 132.675C108.88 133.1 110.489 132.179 110.914 130.618C111.339 129.058 110.419 127.447 108.858 127.022C78.9072 118.865 77.7906 118.517 77.242 118.435L77.2578 118.429V118.429C76.8753 118.408 75.1522 118.031 72.8652 118.65L42.1536 127.024C40.593 127.449 39.6662 129.059 40.0921 130.62C40.5177 132.181 42.1246 133.101 43.6854 132.675L74.3766 124.304C76.6829 123.678 79.0056 125.07 79.5729 127.343C80.1227 129.541 78.8506 131.762 76.6764 132.401L38.2881 143.694C32.4884 145.4 26.4148 142.057 24.7529 136.241C23.3434 131.311 25.5036 126.199 30.0063 123.744L57.1308 108.993H93.8695L120.994 123.744Z" fill="white"/>
</svg>
