<svg width="151" height="150" viewBox="0 0 151 150" fill="none" xmlns="http://www.w3.org/2000/svg">
<g clip-path="url(#clip0_1_1247)">
<path d="M139.844 88.6781C139.762 88.524 140.571 89.8341 127.942 69.608C125.963 65.8529 124.918 61.6115 124.918 57.3358C124.918 41.9423 118.897 27.4919 107.966 16.6469C85.353 -5.78776 48.8212 -5.4699 26.6253 17.1329C8.65148 35.436 5.73245 62.343 16.486 83.3955C23.6567 97.3596 27.4473 112.979 27.4473 128.566V147.07C27.4473 148.688 28.7592 150 30.3769 150H94.7982C96.4159 150 97.7278 148.688 97.7278 147.07V126.468H110.551C118.479 126.468 124.929 120.017 124.929 112.089V100.317L133.064 100.187C135.818 100.14 138.295 98.6931 139.69 96.3175C141.08 93.9501 141.138 91.0941 139.844 88.6781ZM132.968 94.3281L121.953 94.5041C120.353 94.5299 119.07 95.8336 119.07 97.4334V112.089C119.07 116.787 115.249 120.608 110.551 120.608H94.7985C93.1808 120.608 91.8689 121.92 91.8689 123.538V144.14H33.3068V128.565C33.3068 112.052 29.2927 95.5072 21.7013 80.7243C18.0724 73.6201 16.1837 65.9285 16.0873 57.8683C15.7949 29.1603 38.7921 5.86491 67.5585 5.86491C96.004 5.86491 119.058 28.8676 119.058 57.336C119.058 62.6011 120.358 67.8266 122.815 72.4474C122.907 72.6193 122.118 71.3388 134.714 91.513C135.335 92.7774 134.417 94.3037 132.968 94.3281Z" fill="#1A1A1A"/>
<path d="M46.1714 48.3145C47.7894 48.3145 49.1011 47.0028 49.1011 45.3848C49.1011 43.7667 47.7894 42.4551 46.1714 42.4551C44.5534 42.4551 43.2417 43.7667 43.2417 45.3848C43.2417 47.0028 44.5534 48.3145 46.1714 48.3145Z" fill="#1A1A1A"/>
<path d="M57.937 48.3145C59.555 48.3145 60.8667 47.0028 60.8667 45.3848C60.8667 43.7667 59.555 42.4551 57.937 42.4551C56.319 42.4551 55.0073 43.7667 55.0073 45.3848C55.0073 47.0028 56.319 48.3145 57.937 48.3145Z" fill="#1A1A1A"/>
<path d="M69.7021 48.3145C71.3202 48.3145 72.6318 47.0028 72.6318 45.3848C72.6318 43.7667 71.3202 42.4551 69.7021 42.4551C68.0841 42.4551 66.7725 43.7667 66.7725 45.3848C66.7725 47.0028 68.0841 48.3145 69.7021 48.3145Z" fill="#1A1A1A"/>
<path d="M78.4182 26.6562C73.326 21.126 66.0296 17.6548 57.9372 17.6548C42.5828 17.6548 30.0911 30.1465 30.0911 45.501C30.0911 52.0187 32.3468 58.251 36.4781 63.2386L33.3558 72.6057C32.723 74.5043 34.1403 76.4616 36.1354 76.4616C36.9064 76.4616 36.5279 76.4264 50.746 72.4044C53.9873 73.2695 57.4419 73.5666 60.9825 73.1799C68.2174 81.0487 78.9511 83.8212 88.6606 81.2289C103.425 85.4058 102.535 85.2863 103.271 85.2863C105.268 85.2863 106.683 83.327 106.05 81.4304L102.928 72.0631C107.059 67.0755 109.316 60.8431 109.316 54.3254C109.316 37.8351 94.9518 24.822 78.4182 26.6562ZM51.5874 66.5535C51.0504 66.3915 50.4774 66.3876 49.938 66.5417L40.6706 69.1895L42.5696 63.4923C42.9106 62.4702 42.6624 61.3435 41.9242 60.5584C38.0721 56.4634 35.9502 51.1164 35.9502 45.5013C35.9502 33.3775 45.8135 23.5142 57.9372 23.5142C71.8483 23.5142 82.2697 36.315 79.4676 49.9648C76.8758 62.4843 64.0211 70.2975 51.5874 66.5535ZM97.4821 69.3828C96.7438 70.168 96.4957 71.2944 96.8364 72.3168L98.7356 78.014C88.9406 75.2552 89.3891 75.2534 88.6638 75.2534C87.7166 75.2534 77.5047 79.2707 67.8026 71.5501C83.6416 65.5987 90.3474 47.0645 82.4844 32.3618C94.1383 32.8941 103.456 42.5424 103.456 54.3257C103.456 59.9405 101.334 65.2879 97.4821 69.3828Z" fill="#1A1A1A"/>
</g>
<defs>
<clipPath id="clip0_1_1247">
<rect width="150" height="150" fill="white" transform="translate(0.5)"/>
</clipPath>
</defs>
</svg>
