<svg width="48" height="48" viewBox="0 0 48 48" fill="none" xmlns="http://www.w3.org/2000/svg">
<path d="M33.2616 21.738C33.1486 21.622 32.7219 21.126 32.3244 20.718C29.9942 18.152 23.9152 13.952 20.7336 12.67C20.2504 12.464 19.0287 12.028 18.376 12C17.7506 12 17.1544 12.144 16.5855 12.436C15.8763 12.844 15.3074 13.486 14.9956 14.244C14.7949 14.77 14.4832 16.344 14.4832 16.372C14.1715 18.094 14 20.892 14 23.984C14 26.93 14.1715 29.614 14.4267 31.362C14.4559 31.39 14.7677 33.346 15.1086 34.016C15.734 35.24 16.9557 36 18.263 36H18.376C19.2275 35.97 21.018 35.21 21.018 35.182C24.0283 33.898 29.9669 29.904 32.3536 27.25C32.3536 27.25 33.0258 26.568 33.3181 26.142C33.774 25.53 34 24.772 34 24.014C34 23.168 33.7448 22.38 33.2616 21.738Z" fill="black"/>
</svg>
