<svg width="32" height="32" viewBox="0 0 32 32" fill="none" xmlns="http://www.w3.org/2000/svg">
<path fill-rule="evenodd" clip-rule="evenodd" d="M5.81255 6.74751C5.81522 6.74751 5.74855 6.81684 5.66455 6.89951C5.34188 7.21284 4.67388 7.86484 4.66715 9.22884C4.65655 11.1368 5.91122 14.6795 11.9525 20.7195C17.9659 26.7302 21.5032 27.9995 23.4152 27.9995H23.4432C24.8072 27.9928 25.4579 27.3235 25.7726 27.0022C25.8686 26.9035 25.9459 26.8315 26.0005 26.7862C27.3286 25.4502 28.0086 24.4555 28.0019 23.8182C27.9926 23.1675 27.1832 22.3982 26.0646 21.3342C25.7086 20.9955 25.3219 20.6275 24.9139 20.2195C23.8565 19.1648 23.3326 19.3448 22.1805 19.7502C20.5872 20.3088 18.4005 21.0688 15.0032 17.6702C11.6005 14.2702 12.3619 12.0862 12.9192 10.4928C13.3219 9.34084 13.5059 8.81551 12.4472 7.75684C12.0325 7.34351 11.6605 6.95151 11.3179 6.59151C10.2605 5.47951 9.49788 4.67551 8.85122 4.66617H8.84055C8.20188 4.66617 7.20988 5.34884 5.80588 6.75284C5.80988 6.74884 5.81122 6.74751 5.81255 6.74751ZM23.4165 29.9995C20.0939 29.9995 15.7619 27.3542 10.5392 22.1342C5.29655 16.8928 2.64722 12.5475 2.6671 9.21817C2.67922 7.01817 3.83255 5.89151 4.26588 5.46884C4.28855 5.44084 4.36588 5.36484 4.39255 5.33817C6.30455 3.42484 7.59388 2.65151 8.87655 2.66597C10.3659 2.68617 11.4259 3.80084 12.7672 5.21284C13.0992 5.56218 13.4592 5.94217 13.8605 6.34218C15.8072 8.28884 15.2526 9.87684 14.8072 11.1515C14.3219 12.5422 13.9019 13.7422 16.4165 16.2568C18.9339 18.7715 20.1339 18.3515 21.5192 17.8622C22.7952 17.4168 24.3792 16.8595 26.3286 18.8062C26.7232 19.2008 27.0979 19.5568 27.4432 19.8862C28.8619 21.2342 29.9819 22.2995 30.0008 23.7928C30.0166 25.0662 29.2432 26.3635 27.3339 28.2742L26.4886 27.7008L27.2032 28.3995C26.7806 28.8328 25.6552 29.9875 23.4539 29.9995H23.4165Z" fill="white"/>
</svg>
