<svg width="32" height="32" viewBox="0 0 32 32" fill="none" xmlns="http://www.w3.org/2000/svg">
<path fill-rule="evenodd" clip-rule="evenodd" d="M5.81267 6.74751C5.81534 6.74751 5.74867 6.81684 5.66467 6.89951C5.342 7.21284 4.674 7.86484 4.66727 9.22884C4.65667 11.1368 5.91134 14.6795 11.9527 20.7195C17.966 26.7302 21.5033 27.9995 23.4153 27.9995H23.4433C24.8073 27.9928 25.458 27.3235 25.7727 27.0022C25.8687 26.9035 25.946 26.8315 26.0007 26.7862C27.3287 25.4502 28.0087 24.4555 28.0021 23.8182C27.9927 23.1675 27.1833 22.3982 26.0647 21.3342C25.7087 20.9955 25.322 20.6275 24.914 20.2195C23.8567 19.1648 23.3327 19.3448 22.1807 19.7502C20.5873 20.3088 18.4007 21.0688 15.0033 17.6702C11.6007 14.2702 12.362 12.0862 12.9193 10.4928C13.322 9.34084 13.506 8.81551 12.4473 7.75684C12.0327 7.34351 11.6607 6.95151 11.318 6.59151C10.2607 5.47951 9.498 4.67551 8.85134 4.66617H8.84067C8.202 4.66617 7.21 5.34884 5.806 6.75284C5.81 6.74884 5.81134 6.74751 5.81267 6.74751ZM23.4167 29.9995C20.094 29.9995 15.762 27.3542 10.5393 22.1342C5.29667 16.8928 2.64734 12.5475 2.66723 9.21817C2.67934 7.01817 3.83267 5.89151 4.266 5.46884C4.28867 5.44084 4.366 5.36484 4.39267 5.33817C6.30467 3.42484 7.594 2.65151 8.87667 2.66597C10.366 2.68617 11.426 3.80084 12.7673 5.21284C13.0993 5.56218 13.4593 5.94217 13.8607 6.34218C15.8073 8.28884 15.2527 9.87684 14.8073 11.1515C14.322 12.5422 13.902 13.7422 16.4167 16.2568C18.934 18.7715 20.134 18.3515 21.5193 17.8622C22.7953 17.4168 24.3793 16.8595 26.3287 18.8062C26.7233 19.2008 27.098 19.5568 27.4433 19.8862C28.862 21.2342 29.982 22.2995 30.0009 23.7928C30.0167 25.0662 29.2433 26.3635 27.334 28.2742L26.4887 27.7008L27.2033 28.3995C26.7807 28.8328 25.6553 29.9875 23.454 29.9995H23.4167Z" fill="white"/>
</svg>
