<svg width="32" height="32" viewBox="0 0 32 32" fill="none" xmlns="http://www.w3.org/2000/svg">
<path fill-rule="evenodd" clip-rule="evenodd" d="M5.81255 6.74763C5.81522 6.74763 5.74855 6.81696 5.66455 6.89963C5.34188 7.21296 4.67388 7.86496 4.66715 9.22896C4.65655 11.137 5.91122 14.6796 11.9525 20.7196C17.9659 26.7303 21.5032 27.9996 23.4152 27.9996H23.4432C24.8072 27.993 25.4579 27.3236 25.7726 27.0023C25.8686 26.9036 25.9459 26.8316 26.0005 26.7863C27.3286 25.4503 28.0086 24.4556 28.0019 23.8183C27.9926 23.1676 27.1832 22.3983 26.0646 21.3343C25.7086 20.9956 25.3219 20.6276 24.9139 20.2196C23.8565 19.165 23.3326 19.345 22.1805 19.7503C20.5872 20.309 18.4005 21.069 15.0032 17.6703C11.6005 14.2703 12.3619 12.0863 12.9192 10.493C13.3219 9.34096 13.5059 8.81563 12.4472 7.75696C12.0325 7.34363 11.6605 6.95163 11.3179 6.59163C10.2605 5.47963 9.49788 4.67563 8.85122 4.6663H8.84055C8.20188 4.6663 7.20988 5.34896 5.80588 6.75296C5.80988 6.74896 5.81122 6.74763 5.81255 6.74763ZM23.4165 29.9996C20.0939 29.9996 15.7619 27.3543 10.5392 22.1343C5.29655 16.893 2.64722 12.5476 2.6671 9.2183C2.67922 7.0183 3.83255 5.89163 4.26588 5.46896C4.28855 5.44096 4.36588 5.36496 4.39255 5.3383C6.30455 3.42496 7.59388 2.65163 8.87655 2.66609C10.3659 2.6863 11.4259 3.80096 12.7672 5.21296C13.0992 5.5623 13.4592 5.9423 13.8605 6.3423C15.8072 8.28896 15.2526 9.87696 14.8072 11.1516C14.3219 12.5423 13.9019 13.7423 16.4165 16.257C18.9339 18.7716 20.1339 18.3516 21.5192 17.8623C22.7952 17.417 24.3792 16.8596 26.3286 18.8063C26.7232 19.201 27.0979 19.557 27.4432 19.8863C28.8619 21.2343 29.9819 22.2996 30.0008 23.793C30.0166 25.0663 29.2432 26.3636 27.3339 28.2743L26.4886 27.701L27.2032 28.3996C26.7806 28.833 25.6552 29.9876 23.4539 29.9996H23.4165Z" fill="white"/>
</svg>
