<svg width="84" height="84" viewBox="0 0 84 84" fill="none" xmlns="http://www.w3.org/2000/svg">
<path d="M68.251 34.125C71.0347 34.1215 73.7034 33.0142 75.6718 31.0458C77.6401 29.0774 78.7475 26.4087 78.751 23.625V15.75H70.876C68.1883 15.754 65.6057 16.7938 63.6651 18.6532C62.3052 16.1858 60.3088 14.128 57.8837 12.6941C55.4585 11.2601 52.6933 10.5025 49.876 10.5H42.001V18.375C42.0058 22.5507 43.6668 26.5539 46.6194 29.5066C49.5721 32.4592 53.5753 34.1201 57.751 34.125H60.376V68.25H28.876V55.125H31.501C34.2847 55.1215 36.9534 54.0142 38.9218 52.0458C40.8901 50.0774 41.9975 47.4087 42.001 44.625V36.75H34.126C31.4383 36.754 28.8557 37.7938 26.9151 39.6532C25.5552 37.1858 23.5588 35.128 21.1337 33.6941C18.7085 32.2601 15.9433 31.5025 13.126 31.5H5.25098V39.375C5.25584 43.5507 6.91677 47.5539 9.86942 50.5066C12.8221 53.4592 16.8253 55.1201 21.001 55.125H23.626V68.25H5.25098V73.5H78.751V68.25H65.626V34.125H68.251ZM65.626 26.25C65.6274 24.858 66.1809 23.5235 67.1652 22.5392C68.1495 21.555 69.484 21.0014 70.876 21H73.501V23.625C73.4996 25.017 72.946 26.3515 71.9618 27.3358C70.9775 28.32 69.6429 28.8736 68.251 28.875H65.626V26.25ZM28.876 47.25C28.8774 45.858 29.4309 44.5235 30.4152 43.5392C31.3995 42.555 32.734 42.0014 34.126 42H36.751V44.625C36.7496 46.017 36.196 47.3515 35.2118 48.3358C34.2275 49.32 32.8929 49.8736 31.501 49.875H28.876V47.25ZM23.626 49.875H21.001C18.2173 49.8715 15.5486 48.7642 13.5802 46.7958C11.6118 44.8274 10.5044 42.1587 10.501 39.375V36.75H13.126C15.9097 36.7535 18.5784 37.8608 20.5468 39.8292C22.5151 41.7976 23.6225 44.4663 23.626 47.25V49.875ZM60.376 28.875H57.751C54.9673 28.8715 52.2986 27.7642 50.3302 25.7958C48.3618 23.8274 47.2544 21.1587 47.251 18.375V15.75H49.876C52.6597 15.7535 55.3284 16.8608 57.2968 18.8292C59.2651 20.7976 60.3725 23.4663 60.376 26.25V28.875Z" fill="white"/>
</svg>
