<svg width="80" height="80" viewBox="0 0 80 80" fill="none" xmlns="http://www.w3.org/2000/svg">
<path d="M39.7131 0.00255585C33.6344 0.124672 28.4583 4.21951 26.5614 9.80286C26.5683 9.78233 26.573 9.76136 26.5799 9.74078C25.567 9.34107 24.4821 9.11765 23.3665 9.11765H9.11708V23.3674C9.11708 24.4869 9.34197 25.576 9.74489 26.592C9.75183 26.5897 9.75876 26.588 9.76569 26.5857C7.63613 27.3196 5.67282 28.5377 4.07495 30.1665C1.37593 32.9135 -0.0699 36.4988 0.00260002 40.2724C0.121441 46.3947 4.18696 51.6031 9.71923 53.4753C9.33278 54.4734 9.11708 55.5396 9.11708 56.6348V70.8841H23.3665C24.4567 70.8841 25.5183 70.6705 26.5121 70.2872C26.5063 70.2699 26.5023 70.2513 26.4965 70.234C27.1826 72.3227 28.3501 74.2373 29.9494 75.8336C32.6289 78.5226 36.2001 80.0027 39.9974 80.0027C40.0941 80.0027 40.1902 79.9981 40.2866 79.9981C46.343 79.8796 51.5071 75.8156 53.4224 70.2618C54.4349 70.6613 55.5191 70.8841 56.634 70.8841H70.8835V56.6348C70.8835 55.5155 70.6587 54.4272 70.256 53.4112C72.3771 52.6754 74.3318 51.458 75.9251 49.8338C78.6238 47.0869 80.0696 43.5014 79.9974 39.7278C79.8783 33.5964 75.7951 28.3792 70.2474 26.5178C70.2582 26.5215 70.2699 26.5239 70.2808 26.5277C70.6676 25.5296 70.8835 24.463 70.8835 23.3674V9.11765H56.634C55.5439 9.11765 54.4829 9.33133 53.4891 9.71396C52.7998 7.64574 51.6381 5.75137 50.0552 4.1713C47.3676 1.47888 43.8104 0.000137329 39.9864 8.39233e-05C39.8953 8.39233e-05 39.8044 0.000869751 39.7131 0.00255585ZM4.81708 40.1856C4.77345 37.7184 5.73258 35.3567 7.51086 33.5446C9.34721 31.6749 11.8869 30.6049 14.4843 30.6049H23.3324C27.3422 30.6049 30.6049 27.3424 30.6049 23.3327V14.4846C30.6049 9.25567 34.735 4.92326 39.8095 4.82183H39.9974C42.5132 4.82183 44.8698 5.79552 46.6432 7.57864C48.4216 9.34711 49.4 11.7038 49.4 14.2197V24.3401H54.2191V14.7631C54.9068 14.2315 55.7532 13.9367 56.634 13.9367H66.0641V23.3674C66.0641 24.2488 65.7691 25.096 65.2369 25.7841H65.7833C65.816 25.7841 65.8477 25.7878 65.88 25.788C65.8486 25.788 65.8171 25.7859 65.7853 25.7859H55.6651H54.2191H49.4H47.9542H42.6531C33.3519 25.7859 25.7856 33.3521 25.7856 42.6532V47.9543H30.6049V42.6532C30.6049 36.0076 36.0073 30.6049 42.6531 30.6049H47.9542H49.4H54.2191H55.6651H65.7853C70.865 30.6049 75.0816 34.7399 75.183 39.8193C75.2262 42.2868 74.272 44.6436 72.4888 46.4556C70.6529 48.3254 68.1131 49.4001 65.5203 49.4001H56.6673C52.6579 49.4001 49.4 52.6578 49.4 56.6675V65.5155C49.4 70.7444 45.2699 75.0774 40.1902 75.1784L39.9974 75.1835C37.4869 75.1835 35.1301 74.2044 33.3564 72.4265C31.5782 70.6531 30.6049 68.2966 30.6049 65.7855V55.6651H25.7856V65.7855C25.7856 65.8274 25.7883 65.8691 25.7886 65.9105C25.7881 65.8682 25.7835 65.8268 25.7835 65.7839V65.2372C25.0954 65.7694 24.248 66.0649 23.3665 66.0649H13.9361V56.6348C13.9361 55.754 14.2312 54.9072 14.7628 54.2194H24.3398H25.7856H30.6049H32.0507H37.3517C46.6481 54.2194 54.2191 46.6531 54.2191 37.3521V32.0507H49.4V37.3521C49.4 43.993 43.9927 49.4001 37.3517 49.4001H32.0507H30.6049H25.7856H24.3398H14.2193C9.13501 49.4001 4.91805 45.2653 4.81708 40.1856ZM14.4823 25.7841H14.7631C14.2312 25.096 13.9361 24.2495 13.9361 23.3674V13.9367H23.3665C24.2485 13.9367 25.0954 14.2315 25.7835 14.7636V14.4851C25.7835 14.4455 25.7879 14.407 25.7884 14.3673C25.7879 14.4067 25.7856 14.4452 25.7856 14.4846V23.3327C25.7856 24.687 24.6867 25.7859 23.3324 25.7859H14.4843C14.4502 25.7859 14.4162 25.788 14.3821 25.7885C14.4156 25.7879 14.4485 25.7841 14.4823 25.7841ZM54.2191 65.2396V56.6675C54.2191 55.3182 55.3179 54.2194 56.6673 54.2194H65.238C65.7697 54.9072 66.0641 55.7537 66.0641 56.6348V66.0649H56.634C55.7526 66.0649 54.9067 65.7706 54.2191 65.2396Z" fill="white"/>
</svg>
