<svg width="80" height="80" viewBox="0 0 80 80" fill="none" xmlns="http://www.w3.org/2000/svg">
<path d="M39.7131 0.00231171C33.6344 0.124428 28.4583 4.21926 26.5614 9.80261C26.5683 9.78209 26.573 9.76112 26.5799 9.74054C25.567 9.34083 24.4821 9.11741 23.3665 9.11741H9.11708V23.3671C9.11708 24.4867 9.34197 25.5757 9.74489 26.5917C9.75183 26.5895 9.75876 26.5877 9.76569 26.5854C7.63613 27.3194 5.67282 28.5374 4.07495 30.1662C1.37593 32.9132 -0.0699 36.4986 0.00260002 40.2722C0.121441 46.3945 4.18696 51.6029 9.71923 53.475C9.33278 54.4731 9.11708 55.5393 9.11708 56.6346V70.8839H23.3665C24.4567 70.8839 25.5183 70.6703 26.5121 70.287C26.5063 70.2696 26.5023 70.2511 26.4965 70.2338C27.1826 72.3225 28.3501 74.2371 29.9494 75.8334C32.6289 78.5223 36.2001 80.0024 39.9974 80.0024C40.0941 80.0024 40.1902 79.9978 40.2866 79.9978C46.343 79.8794 51.5071 75.8153 53.4224 70.2616C54.4349 70.661 55.5191 70.8839 56.634 70.8839H70.8835V56.6346C70.8835 55.5153 70.6587 54.427 70.256 53.4109C72.3771 52.6752 74.3318 51.4577 75.9251 49.8335C78.6238 47.0866 80.0696 43.5012 79.9974 39.7276C79.8783 33.5961 75.7951 28.379 70.2474 26.5176C70.2582 26.5213 70.2699 26.5236 70.2808 26.5275C70.6676 25.5293 70.8835 24.4628 70.8835 23.3671V9.11741H56.634C55.5439 9.11741 54.4829 9.33109 53.4891 9.71371C52.7998 7.64549 51.6381 5.75112 50.0552 4.17106C47.3676 1.47864 43.8104 -0.000106812 39.9864 -0.000160217C39.8953 -0.000160217 39.8044 0.00062561 39.7131 0.00231171ZM4.81708 40.1854C4.77345 37.7181 5.73258 35.3564 7.51086 33.5443C9.34721 31.6747 11.8869 30.6047 14.4843 30.6047H23.3324C27.3422 30.6047 30.6049 27.3422 30.6049 23.3324V14.4843C30.6049 9.25542 34.735 4.92301 39.8095 4.82159H39.9974C42.5132 4.82159 44.8698 5.79527 46.6432 7.5784C48.4216 9.34687 49.4 11.7036 49.4 14.2194V24.3398H54.2191V14.7628C54.9068 14.2312 55.7532 13.9364 56.634 13.9364H66.0641V23.3671C66.0641 24.2486 65.7691 25.0957 65.2369 25.7839H65.7833C65.816 25.7839 65.8477 25.7876 65.88 25.7878C65.8486 25.7878 65.8171 25.7856 65.7853 25.7856H55.6651H54.2191H49.4H47.9542H42.6531C33.3519 25.7856 25.7856 33.3519 25.7856 42.6529V47.954H30.6049V42.6529C30.6049 36.0074 36.0073 30.6047 42.6531 30.6047H47.9542H49.4H54.2191H55.6651H65.7853C70.865 30.6047 75.0816 34.7397 75.183 39.819C75.2262 42.2866 74.272 44.6433 72.4888 46.4554C70.6529 48.3252 68.1131 49.3998 65.5203 49.3998H56.6673C52.6579 49.3998 49.4 52.6576 49.4 56.6673V65.5152C49.4 70.7442 45.2699 75.0772 40.1902 75.1781L39.9974 75.1832C37.4869 75.1832 35.1301 74.2041 33.3564 72.4262C31.5782 70.6529 30.6049 68.2964 30.6049 65.7852V55.6649H25.7856V65.7852C25.7856 65.8271 25.7883 65.8689 25.7886 65.9103C25.7881 65.8679 25.7835 65.8266 25.7835 65.7837V65.237C25.0954 65.7692 24.248 66.0647 23.3665 66.0647H13.9361V56.6346C13.9361 55.7538 14.2312 54.907 14.7628 54.2191H24.3398H25.7856H30.6049H32.0507H37.3517C46.6481 54.2191 54.2191 46.6528 54.2191 37.3518V32.0505H49.4V37.3518C49.4 43.9928 43.9927 49.3998 37.3517 49.3998H32.0507H30.6049H25.7856H24.3398H14.2193C9.13501 49.3998 4.91805 45.2651 4.81708 40.1854ZM14.4823 25.7839H14.7631C14.2312 25.0957 13.9361 24.2492 13.9361 23.3671V13.9364H23.3665C24.2485 13.9364 25.0954 14.2312 25.7835 14.7634V14.4849C25.7835 14.4453 25.7879 14.4067 25.7884 14.3671C25.7879 14.4064 25.7856 14.445 25.7856 14.4843V23.3324C25.7856 24.6868 24.6867 25.7856 23.3324 25.7856H14.4843C14.4502 25.7856 14.4162 25.7878 14.3821 25.7883C14.4156 25.7877 14.4485 25.7839 14.4823 25.7839ZM54.2191 65.2393V56.6673C54.2191 55.3179 55.3179 54.2191 56.6673 54.2191H65.238C65.7697 54.907 66.0641 55.7535 66.0641 56.6346V66.0647H56.634C55.7526 66.0647 54.9067 65.7704 54.2191 65.2393Z" fill="white"/>
</svg>
