<svg width="80" height="80" viewBox="0 0 80 80" fill="none" xmlns="http://www.w3.org/2000/svg">
<path d="M39.7131 0.00247192C33.6344 0.124588 28.4583 4.21942 26.5614 9.80277C26.5683 9.78225 26.573 9.76128 26.5799 9.7407C25.567 9.34099 24.4821 9.11757 23.3665 9.11757H9.11708V23.3673C9.11708 24.4868 9.34197 25.5759 9.74489 26.5919C9.75183 26.5896 9.75876 26.5879 9.76569 26.5856C7.63613 27.3195 5.67282 28.5376 4.07495 30.1664C1.37593 32.9134 -0.0699 36.4987 0.00260002 40.2724C0.121441 46.3947 4.18696 51.603 9.71923 53.4752C9.33278 54.4733 9.11708 55.5395 9.11708 56.6348V70.8841H23.3665C24.4567 70.8841 25.5183 70.6704 26.5121 70.2871C26.5063 70.2698 26.5023 70.2512 26.4965 70.2339C27.1826 72.3226 28.3501 74.2372 29.9494 75.8335C32.6289 78.5225 36.2001 80.0026 39.9974 80.0026C40.0941 80.0026 40.1902 79.998 40.2866 79.998C46.343 79.8795 51.5071 75.8155 53.4224 70.2617C54.4349 70.6612 55.5191 70.8841 56.634 70.8841H70.8835V56.6348C70.8835 55.5155 70.6587 54.4271 70.256 53.4111C72.3771 52.6753 74.3318 51.4579 75.9251 49.8337C78.6238 47.0868 80.0696 43.5013 79.9974 39.7278C79.8783 33.5963 75.7951 28.3791 70.2474 26.5178C70.2582 26.5214 70.2699 26.5238 70.2808 26.5276C70.6676 25.5295 70.8835 24.4629 70.8835 23.3673V9.11757H56.634C55.5439 9.11757 54.4829 9.33125 53.4891 9.71387C52.7998 7.64565 51.6381 5.75128 50.0552 4.17122C47.3676 1.4788 43.8104 5.34058e-05 39.9864 0C39.8953 0 39.8044 0.000785828 39.7131 0.00247192ZM4.81708 40.1855C4.77345 37.7183 5.73258 35.3566 7.51086 33.5445C9.34721 31.6748 11.8869 30.6048 14.4843 30.6048H23.3324C27.3422 30.6048 30.6049 27.3423 30.6049 23.3326V14.4845C30.6049 9.25558 34.735 4.92317 39.8095 4.82175H39.9974C42.5132 4.82175 44.8698 5.79543 46.6432 7.57856C48.4216 9.34703 49.4 11.7037 49.4 14.2196V24.34H54.2191V14.763C54.9068 14.2314 55.7532 13.9366 56.634 13.9366H66.0641V23.3673C66.0641 24.2487 65.7691 25.0959 65.2369 25.784H65.7833C65.816 25.784 65.8477 25.7877 65.88 25.788C65.8486 25.788 65.8171 25.7858 65.7853 25.7858H55.6651H54.2191H49.4H47.9542H42.6531C33.3519 25.7858 25.7856 33.352 25.7856 42.6531V47.9542H30.6049V42.6531C30.6049 36.0075 36.0073 30.6048 42.6531 30.6048H47.9542H49.4H54.2191H55.6651H65.7853C70.865 30.6048 75.0816 34.7399 75.183 39.8192C75.2262 42.2867 74.272 44.6435 72.4888 46.4556C70.6529 48.3253 68.1131 49.4 65.5203 49.4H56.6673C52.6579 49.4 49.4 52.6577 49.4 56.6675V65.5154C49.4 70.7444 45.2699 75.0773 40.1902 75.1783L39.9974 75.1834C37.4869 75.1834 35.1301 74.2043 33.3564 72.4264C31.5782 70.653 30.6049 68.2966 30.6049 65.7854V55.665H25.7856V65.7854C25.7856 65.8273 25.7883 65.869 25.7886 65.9104C25.7881 65.8681 25.7835 65.8268 25.7835 65.7839V65.2371C25.0954 65.7693 24.248 66.0648 23.3665 66.0648H13.9361V56.6348C13.9361 55.7539 14.2312 54.9072 14.7628 54.2193H24.3398H25.7856H30.6049H32.0507H37.3517C46.6481 54.2193 54.2191 46.653 54.2191 37.352V32.0507H49.4V37.352C49.4 43.9929 43.9927 49.4 37.3517 49.4H32.0507H30.6049H25.7856H24.3398H14.2193C9.13501 49.4 4.91805 45.2652 4.81708 40.1855ZM14.4823 25.784H14.7631C14.2312 25.0959 13.9361 24.2494 13.9361 23.3673V13.9366H23.3665C24.2485 13.9366 25.0954 14.2314 25.7835 14.7636V14.4851C25.7835 14.4454 25.7879 14.4069 25.7884 14.3672C25.7879 14.4066 25.7856 14.4451 25.7856 14.4845V23.3326C25.7856 24.6869 24.6867 25.7858 23.3324 25.7858H14.4843C14.4502 25.7858 14.4162 25.788 14.3821 25.7884C14.4156 25.7878 14.4485 25.784 14.4823 25.784ZM54.2191 65.2395V56.6675C54.2191 55.3181 55.3179 54.2193 56.6673 54.2193H65.238C65.7697 54.9072 66.0641 55.7536 66.0641 56.6348V66.0648H56.634C55.7526 66.0648 54.9067 65.7706 54.2191 65.2395Z" fill="white"/>
</svg>
