<svg width="100" height="100" viewBox="0 0 100 100" fill="none" xmlns="http://www.w3.org/2000/svg">
<circle cx="50" cy="50" r="50" fill="url(#paint0_linear_1_1231)"/>
<path d="M50 15C69.2905 15 85 30.7019 85 50.0203C85 69.2981 69.2905 85 50 85C30.7095 85 15 69.2981 15 50.0203C15 30.7019 30.7095 15 50 15ZM46.0135 36.1047C45.2703 36.1047 44.5608 36.2735 43.8851 36.6112C43.0405 37.0839 42.3649 37.8268 41.9932 38.7048C41.7568 39.3126 41.3851 41.136 41.3851 41.1698C41.0135 43.1621 40.8108 46.4038 40.8108 49.9831C40.8108 53.397 41.0135 56.5002 41.3176 58.5263C41.3514 58.5601 41.723 60.8225 42.1284 61.5991C42.8716 63.0174 44.3243 63.8953 45.8784 63.8953H46.0135C47.027 63.8616 49.1554 62.9836 49.1554 62.9498C52.7365 61.4641 59.7973 56.8379 62.6351 53.7651L62.8378 53.5625C63.2095 53.191 63.6824 52.617 63.7838 52.4819C64.3243 51.7728 64.5946 50.8948 64.5946 50.0203C64.5946 49.0376 64.2905 48.1259 63.7162 47.383C63.5811 47.248 63.0743 46.6739 62.6013 46.2012C59.8311 43.2296 52.6013 38.3671 48.8176 36.8813C48.2432 36.6483 46.7905 36.1384 46.0135 36.1047Z" fill="white"/>
<defs>
<linearGradient id="paint0_linear_1_1231" x1="100" y1="59.7468" x2="1.20482e-06" y2="59.7468" gradientUnits="userSpaceOnUse">
<stop stop-color="#007D6E"/>
<stop offset="1" stop-color="#5EB47C"/>
</linearGradient>
</defs>
</svg>
