<svg width="398" height="1396" viewBox="0 0 398 1396" fill="none" xmlns="http://www.w3.org/2000/svg">
<path d="M-75.2979 77.4551C41.6694 135.354 245.387 303.044 124.518 510.613C-26.5677 770.074 -80.9974 727.524 37.0099 934.971C155.017 1142.42 -177.033 1301.47 -213.068 1339.21" stroke="#CCCCCC" stroke-width="0.5"/>
<path d="M-110.754 62.1641C6.21331 120.063 209.931 287.753 89.062 495.322C-62.0238 754.783 -116.453 712.233 1.55383 919.68C119.561 1127.13 -212.489 1286.18 -248.524 1323.92" stroke="#CCCCCC" stroke-width="0.5"/>
<path d="M-146.21 46.873C-29.2427 104.772 174.475 272.462 53.6059 480.031C-97.4798 739.492 -151.909 696.942 -33.9022 904.389C84.105 1111.84 -247.945 1270.89 -283.98 1308.63" stroke="#CCCCCC" stroke-width="0.5"/>
<path d="M-181.666 31.582C-64.6988 89.4809 139.018 257.171 18.1499 464.74C-132.936 724.201 -187.366 681.651 -69.3583 889.098C48.649 1096.54 -283.401 1255.6 -319.436 1293.34" stroke="#CCCCCC" stroke-width="0.5"/>
<path d="M-217.122 16.291C-100.155 74.1899 103.562 241.88 -17.3062 449.449C-168.392 708.91 -222.822 666.36 -104.814 873.807C13.1929 1081.25 -318.857 1240.31 -354.892 1278.05" stroke="#CCCCCC" stroke-width="0.5"/>
<path d="M-252.578 1C-135.819 58.809 67.4924 226.324 -53.3302 433.913C-204.358 693.399 -258.681 650.895 -140.979 858.21C-23.2761 1065.53 -354.939 1224.74 -390.945 1262.5" stroke="#CCCCCC" stroke-width="0.5"/>
</svg>
