<svg width="54" height="54" viewBox="0 0 54 54" fill="none" xmlns="http://www.w3.org/2000/svg">
<path fill-rule="evenodd" clip-rule="evenodd" d="M27.5615 4.5C37.7968 4.5 46.124 12.8902 46.124 23.2043C46.124 35.883 31.598 48.375 27.5615 48.375C23.525 48.375 8.99902 35.883 8.99902 23.2043C8.99902 12.8902 17.3263 4.5 27.5615 4.5ZM27.5615 7.875C19.187 7.875 12.374 14.7532 12.374 23.2043C12.374 33.957 25.028 44.433 27.5615 44.991C30.095 44.4308 42.749 33.9548 42.749 23.2043C42.749 14.7532 35.936 7.875 27.5615 7.875ZM27.5638 15.75C31.5958 15.75 34.8763 19.0305 34.8763 23.0648C34.8763 27.0968 31.5958 30.375 27.5638 30.375C23.5318 30.375 20.2513 27.0968 20.2513 23.0648C20.2513 19.0305 23.5318 15.75 27.5638 15.75ZM27.5638 19.125C25.3925 19.125 23.6263 20.8913 23.6263 23.0648C23.6263 25.236 25.3925 27 27.5638 27C29.735 27 31.5013 25.236 31.5013 23.0648C31.5013 20.8913 29.735 19.125 27.5638 19.125Z" fill="#EA0000"/>
</svg>
