<svg width="32" height="32" viewBox="0 0 32 32" fill="none" xmlns="http://www.w3.org/2000/svg">
<path fill-rule="evenodd" clip-rule="evenodd" d="M16.3326 2.66675C22.398 2.66675 27.3326 7.63875 27.3326 13.7507C27.3326 21.2641 18.7246 28.6667 16.3326 28.6667C13.9406 28.6667 5.33264 21.2641 5.33264 13.7507C5.33264 7.63875 10.2673 2.66675 16.3326 2.66675ZM16.3326 4.66675C11.37 4.66675 7.33264 8.74275 7.33264 13.7507C7.33264 20.1227 14.8313 26.3307 16.3326 26.6614C17.834 26.3294 25.3326 20.1214 25.3326 13.7507C25.3326 8.74275 21.2953 4.66675 16.3326 4.66675ZM16.334 9.33342C18.7233 9.33342 20.6673 11.2774 20.6673 13.6681C20.6673 16.0574 18.7233 18.0001 16.334 18.0001C13.9446 18.0001 12.0006 16.0574 12.0006 13.6681C12.0006 11.2774 13.9446 9.33342 16.334 9.33342ZM16.334 11.3334C15.0473 11.3334 14.0006 12.3801 14.0006 13.6681C14.0006 14.9547 15.0473 16.0001 16.334 16.0001C17.6206 16.0001 18.6673 14.9547 18.6673 13.6681C18.6673 12.3801 17.6206 11.3334 16.334 11.3334Z" fill="white"/>
</svg>
