<svg width="120" height="30" viewBox="0 0 120 30" fill="none" xmlns="http://www.w3.org/2000/svg">
<g clip-path="url(#clip0_1_349)">
<path d="M36.1963 21.1374H44.633V18.5962H39.1949V9.02441H36.1963V21.1374Z" fill="#777777"/>
<path d="M49.6308 19.443C48.428 19.443 47.8012 18.3927 47.8012 16.8171C47.8012 15.2416 48.428 14.1743 49.6308 14.1743C50.8336 14.1743 51.4774 15.2416 51.4774 16.8171C51.4774 18.3927 50.8336 19.443 49.6308 19.443ZM49.6477 21.4082C52.443 21.4082 54.2727 19.4261 54.2727 16.8171C54.2727 14.2082 52.443 12.2261 49.6477 12.2261C46.8694 12.2261 45.0059 14.2082 45.0059 16.8171C45.0059 19.4261 46.8694 21.4082 49.6477 21.4082Z" fill="#777777"/>
<path d="M59.1111 24.1356C60.3986 24.1356 61.5337 23.8476 62.296 23.1699C62.9906 22.5431 63.448 21.5944 63.448 20.2899V12.4631H60.8052V13.3949H60.7713C60.2631 12.6664 59.4838 12.209 58.3318 12.209C56.1803 12.209 54.6895 14.0047 54.6895 16.5459C54.6895 19.2057 56.5022 20.6626 58.4504 20.6626C59.5007 20.6626 60.1615 20.2391 60.6697 19.6631H60.7375V20.5271C60.7375 21.5775 60.2462 22.1873 59.0772 22.1873C58.1624 22.1873 57.705 21.7977 57.5525 21.3403H54.8758C55.1469 23.153 56.7224 24.1356 59.1111 24.1356ZM59.0942 18.6127C58.0608 18.6127 57.3831 17.7657 57.3831 16.4612C57.3831 15.1398 58.0608 14.2927 59.0942 14.2927C60.2462 14.2927 60.856 15.2753 60.856 16.4443C60.856 17.664 60.297 18.6127 59.0942 18.6127Z" fill="#777777"/>
<path d="M68.8827 19.443C67.6799 19.443 67.0531 18.3927 67.0531 16.8171C67.0531 15.2416 67.6799 14.1743 68.8827 14.1743C70.0856 14.1743 70.7291 15.2416 70.7291 16.8171C70.7291 18.3927 70.0856 19.443 68.8827 19.443ZM68.8997 21.4082C71.6947 21.4082 73.5243 19.4261 73.5243 16.8171C73.5243 14.2082 71.6947 12.2261 68.8997 12.2261C66.1213 12.2261 64.2578 14.2082 64.2578 16.8171C64.2578 19.4261 66.1213 21.4082 68.8997 21.4082Z" fill="#777777"/>
<path d="M74.3311 21.1374H77.0925V12.4635H74.3311V21.1374ZM74.3311 11.2606H77.0925V9.02441H74.3311V11.2606Z" fill="#777777"/>
<path d="M78.29 24H81.0514V20.2391H81.0853C81.6275 20.9676 82.4237 21.408 83.5418 21.408C85.8119 21.408 87.3197 19.6123 87.3197 16.8C87.3197 14.1911 85.9136 12.209 83.6096 12.209C82.4237 12.209 81.5766 12.7342 80.9837 13.5135H80.9329V12.4631H78.29V24ZM82.8303 19.2735C81.6444 19.2735 80.9667 18.3078 80.9667 16.9017C80.9667 15.4956 81.5766 14.4283 82.7795 14.4283C83.9653 14.4283 84.5244 15.4109 84.5244 16.9017C84.5244 18.3756 83.8806 19.2735 82.8303 19.2735Z" fill="#777777"/>
<path d="M91.816 21.408C94.0861 21.408 95.7633 20.4255 95.7633 18.528C95.7633 16.3087 93.9675 15.9191 92.4428 15.665C91.3417 15.4617 90.3591 15.377 90.3591 14.7671C90.3591 14.225 90.8842 13.9709 91.5619 13.9709C92.3242 13.9709 92.8494 14.208 92.9511 14.9873H95.4922C95.3567 13.2763 94.0353 12.209 91.5788 12.209C89.5289 12.209 87.8348 13.1577 87.8348 14.9873C87.8348 17.0203 89.4442 17.4269 90.952 17.681C92.104 17.8843 93.1544 17.969 93.1544 18.7483C93.1544 19.3073 92.6292 19.6123 91.7991 19.6123C90.8842 19.6123 90.3082 19.1887 90.2066 18.3247H87.5977C87.6824 20.2391 89.2748 21.408 91.816 21.408Z" fill="#777777"/>
<path d="M99.5143 21.3914C100.717 21.3914 101.479 20.917 102.106 20.07H102.157V21.1373H104.8V12.4634H102.038V17.3086C102.038 18.342 101.462 19.0535 100.514 19.0535C99.6328 19.0535 99.2093 18.5283 99.2093 17.5796V12.4634H96.4648V18.1556C96.4648 20.0869 97.5152 21.3914 99.5143 21.3914Z" fill="#777777"/>
<path d="M106.001 21.137H108.762V16.2749C108.762 15.2415 109.271 14.513 110.135 14.513C110.965 14.513 111.354 15.0551 111.354 15.9869V21.137H114.116V16.2749C114.116 15.2415 114.607 14.513 115.488 14.513C116.318 14.513 116.708 15.0551 116.708 15.9869V21.137H119.469V15.4956C119.469 13.5473 118.487 12.209 116.521 12.209C115.403 12.209 114.472 12.6833 113.794 13.7337H113.76C113.32 12.8019 112.456 12.209 111.321 12.209C110.067 12.209 109.237 12.8019 108.695 13.6998H108.644V12.4631H106.001V21.137Z" fill="#777777"/>
<path fill-rule="evenodd" clip-rule="evenodd" d="M14.1889 28.9018C21.9859 28.9018 28.3066 22.5811 28.3066 14.7841C28.3066 6.98719 21.9859 0.666504 14.1889 0.666504C6.39196 0.666504 0.0712891 6.98719 0.0712891 14.7841C0.0712891 22.5811 6.39196 28.9018 14.1889 28.9018ZM16.368 11.5742C17.5714 10.3707 17.5714 8.4196 16.368 7.21615C15.1645 6.0127 13.2134 6.0127 12.0099 7.21615C10.8065 8.4196 10.8065 10.3707 12.0099 11.5742L14.1889 13.7532L16.368 11.5742ZM17.3989 16.9632C18.6024 18.1666 20.5535 18.1666 21.757 16.9632C22.9603 15.7597 22.9603 13.8086 21.757 12.6051C20.5535 11.4017 18.6024 11.4017 17.3989 12.6051L15.2199 14.7842L17.3989 16.9632ZM16.368 22.3522C17.5714 21.1487 17.5714 19.1976 16.368 17.9941L14.1889 15.8151L12.0099 17.9941C10.8065 19.1976 10.8065 21.1487 12.0099 22.3522C13.2134 23.5556 15.1645 23.5556 16.368 22.3522ZM6.62091 16.9632C5.41749 15.7597 5.41749 13.8086 6.62091 12.6051C7.82439 11.4017 9.77552 11.4017 10.979 12.6051L13.158 14.7842L10.979 16.9632C9.77552 18.1666 7.82439 18.1666 6.62091 16.9632Z" fill="#777777"/>
</g>
<defs>
<clipPath id="clip0_1_349">
<rect width="120" height="28.9412" fill="white" transform="translate(0 0.438477)"/>
</clipPath>
</defs>
</svg>
