<svg width="120" height="26" viewBox="0 0 120 26" fill="none" xmlns="http://www.w3.org/2000/svg">
<path d="M19.2163 11.5128C18.8915 11.8397 18.6427 12.2341 18.4878 12.668C18.3328 13.102 18.2754 13.5647 18.3198 14.0234L18.3043 14.008C18.3499 14.5479 18.2771 15.0911 18.091 15.6C17.9049 16.1088 17.61 16.5709 17.227 16.9541C16.8438 17.3371 16.3818 17.6321 15.8729 17.8181C15.3641 18.0041 14.8207 18.077 14.2809 18.0314L14.2963 18.0468C13.6506 17.9867 13.002 18.1272 12.4389 18.4493C11.8759 18.7713 11.4259 19.2591 11.1504 19.8462C10.8748 20.4334 10.7869 21.0911 10.8989 21.7301C11.0109 22.3689 11.3172 22.9577 11.776 23.4161C12.2348 23.8745 12.8238 24.1802 13.4628 24.2915C14.1018 24.403 14.7594 24.3145 15.3463 24.0384C15.9332 23.7623 16.4206 23.3119 16.7421 22.7486C17.0636 22.1853 17.2036 21.5366 17.1429 20.8908L17.1592 20.9063C17.1136 20.3664 17.1864 19.8231 17.3724 19.3142C17.5585 18.8054 17.8535 18.3433 18.2365 17.9602C18.6197 17.5771 19.0818 17.2822 19.5906 17.0962C20.0994 16.9101 20.6427 16.8372 21.1826 16.8828L21.1663 16.8674C21.6938 16.9148 22.2248 16.8283 22.71 16.6159C23.1952 16.4035 23.619 16.0721 23.9419 15.6523C24.2649 15.2326 24.4768 14.738 24.5577 14.2146C24.6387 13.6912 24.5862 13.1558 24.4052 12.658C24.2242 12.1602 23.9204 11.7162 23.5221 11.3671C23.1238 11.018 22.6438 10.7751 22.1266 10.6609C21.6094 10.5467 21.0717 10.5649 20.5634 10.7138C20.0551 10.8628 19.5927 11.1376 19.2189 11.5128H19.2163Z" fill="#777777"/>
<path d="M12.8936 16.0255L12.8773 16.0101C13.3361 16.0563 13.7995 16 14.234 15.8452C14.6684 15.6904 15.063 15.4411 15.3892 15.1151C15.7154 14.7891 15.9651 14.3947 16.1202 13.9603C16.2753 13.526 16.332 13.0627 16.2861 12.6038L16.3024 12.6193C16.2568 12.0793 16.3297 11.5361 16.5157 11.0272C16.7018 10.5184 16.9967 10.0563 17.3798 9.67317C17.7629 9.29011 18.225 8.99517 18.7338 8.80917C19.2427 8.62305 19.7859 8.55025 20.3258 8.59582L20.3096 8.5804C20.9554 8.64108 21.6042 8.50099 22.1675 8.17934C22.7309 7.85769 23.1812 7.37008 23.4572 6.78305C23.7332 6.19603 23.8214 5.53815 23.7098 4.89914C23.5982 4.26013 23.2922 3.67112 22.8335 3.21243C22.3748 2.75374 21.7858 2.44771 21.1468 2.33609C20.5078 2.22447 19.85 2.31268 19.2629 2.58869C18.6758 2.8647 18.1883 3.31509 17.8666 3.87841C17.5449 4.44172 17.4049 5.09056 17.4656 5.7364L17.4501 5.72011C17.4958 6.26002 17.4231 6.80339 17.2371 7.31229C17.0511 7.8212 16.7562 8.28336 16.3731 8.66654C15.99 9.0496 15.5278 9.34454 15.0189 9.53054C14.51 9.71654 13.9666 9.78922 13.4267 9.74354L13.4421 9.75982C12.9833 9.71362 12.5198 9.76994 12.0854 9.92474C11.651 10.0795 11.2564 10.3289 10.9302 10.6549C10.604 10.9808 10.3543 11.3753 10.1991 11.8096C10.0441 12.2439 9.98741 12.7072 10.0333 13.1661L10.0178 13.1507C10.0633 13.6905 9.99033 14.2338 9.80424 14.7426C9.61807 15.2513 9.32321 15.7134 8.94015 16.0964C8.55706 16.4795 8.09503 16.7743 7.58626 16.9605C7.0775 17.1466 6.53425 17.2195 5.99441 17.1741L6.00984 17.1895C5.364 17.1289 4.71517 17.2689 4.15185 17.5906C3.58853 17.9123 3.13815 18.3998 2.86214 18.9869C2.58612 19.5739 2.4979 20.2318 2.60953 20.8708C2.72115 21.5098 3.02719 22.0988 3.48587 22.5575C3.94456 23.0162 4.53357 23.3222 5.17258 23.4338C5.81159 23.5454 6.46947 23.4572 7.05651 23.1812C7.64353 22.9052 8.13113 22.4549 8.45278 21.8916C8.77447 21.3282 8.91453 20.6794 8.85384 20.0335L8.87013 20.049C8.82453 19.5091 8.89738 18.9658 9.08347 18.4569C9.26947 17.9481 9.56441 17.486 9.94747 17.1029C10.3306 16.7198 10.7927 16.4249 11.3015 16.2389C11.8104 16.0528 12.3536 15.9799 12.8936 16.0255Z" fill="#777777"/>
<path d="M7.14861 14.3051C7.47349 13.9784 7.72221 13.5839 7.87705 13.15C8.03188 12.716 8.089 12.2531 8.04433 11.7946L8.0606 11.81C8.015 11.27 8.08783 10.7265 8.27401 10.2175C8.46019 9.70853 8.75524 9.24636 9.13856 8.86322C9.52187 8.48009 9.98413 8.18525 10.4932 7.99929C11.0022 7.81332 11.5458 7.74072 12.0858 7.78656L12.0695 7.77113C12.7151 7.83162 13.3637 7.69149 13.9267 7.36985C14.4898 7.04823 14.9399 6.56075 15.2158 5.9739C15.4916 5.38705 15.5797 4.72941 15.4681 4.09064C15.3565 3.45187 15.0505 2.86308 14.592 2.40456C14.1336 1.94604 13.5447 1.64011 12.906 1.52849C12.2672 1.41687 11.6095 1.505 11.0227 1.78085C10.4358 2.05669 9.94839 2.50684 9.62679 3.06989C9.3051 3.63295 9.16496 4.28152 9.22547 4.92713L9.21004 4.91171C9.25564 5.45158 9.18279 5.99489 8.9967 6.50373C8.81061 7.01256 8.51577 7.47466 8.13266 7.85777C7.74956 8.24087 7.28746 8.53576 6.77863 8.72179C6.26979 8.90788 5.72648 8.98073 5.18661 8.93513L5.20204 8.95056C4.67453 8.90325 4.14361 8.98991 3.65848 9.20239C3.17336 9.41488 2.74971 9.74642 2.42682 10.1662C2.10392 10.586 1.89223 11.0806 1.81133 11.6039C1.73044 12.1274 1.78298 12.6628 1.96406 13.1604C2.14515 13.6582 2.44895 14.1021 2.84729 14.4511C3.24563 14.8002 3.72563 15.043 4.24281 15.1572C4.75999 15.2713 5.29761 15.253 5.80587 15.1042C6.31412 14.9552 6.77655 14.6804 7.15032 14.3051H7.14861Z" fill="#777777"/>
<path d="M33.7002 5.75586H36.2459V18.1441H33.7002V5.75586Z" fill="#777777"/>
<path d="M37.6876 13.9021C37.6841 13.0119 37.9448 12.1405 38.4369 11.3986C38.9289 10.6567 39.63 10.0774 40.4515 9.73428C41.273 9.39108 42.1778 9.29945 43.0514 9.47097C43.925 9.64248 44.728 10.0693 45.3588 10.6976C45.9896 11.3258 46.4197 12.1272 46.5947 13.0001C46.7697 13.873 46.6817 14.7782 46.3419 15.6011C46.002 16.4239 45.4256 17.1274 44.6856 17.6223C43.9455 18.1173 43.0754 18.3816 42.185 18.3816C41.5941 18.3883 41.0078 18.2772 40.4602 18.0547C39.9127 17.8321 39.415 17.5027 38.9963 17.0857C38.5775 16.6687 38.2461 16.1723 38.0215 15.6257C37.7967 15.0791 37.6833 14.4931 37.6876 13.9021ZM44.1368 13.9021C44.1261 13.5184 44.0026 13.1463 43.7817 12.8323C43.5608 12.5185 43.2522 12.2766 42.8946 12.1371C42.5369 11.9976 42.1461 11.9665 41.771 12.048C41.3958 12.1294 41.0529 12.3195 40.7852 12.5947C40.5176 12.8699 40.337 13.2179 40.2661 13.5952C40.1951 13.9724 40.2368 14.3623 40.3862 14.7159C40.5356 15.0696 40.7859 15.3713 41.1058 15.5834C41.4258 15.7956 41.8012 15.9087 42.185 15.9087C42.4479 15.9157 42.7094 15.8682 42.9531 15.7691C43.1967 15.67 43.4172 15.5215 43.6005 15.3331C43.7839 15.1445 43.9262 14.92 44.0185 14.6737C44.1108 14.4275 44.1511 14.1648 44.1368 13.9021Z" fill="#777777"/>
<path d="M56.8286 9.65959V17.7167C56.8286 20.5676 54.6052 21.7727 52.3483 21.7727C51.5538 21.8322 50.7581 21.6717 50.0486 21.3088C49.3393 20.9459 48.7435 20.3947 48.3266 19.7156L50.4986 18.4599C50.6738 18.8139 50.953 19.1059 51.2987 19.297C51.6445 19.4879 52.0403 19.5688 52.4332 19.5287C52.6843 19.5635 52.9401 19.5414 53.1816 19.464C53.4229 19.3866 53.6439 19.2559 53.828 19.0816C54.0121 18.9073 54.1547 18.6939 54.2452 18.457C54.3356 18.2201 54.3716 17.966 54.3506 17.7133V16.9376C54.0525 17.3023 53.6731 17.5921 53.2428 17.7837C52.8124 17.9752 52.3432 18.0633 51.8726 18.0407C50.753 18.0054 49.6911 17.5359 48.9116 16.7314C48.1321 15.9269 47.6963 14.8507 47.6963 13.7306C47.6963 12.6105 48.1321 11.5342 48.9116 10.7298C49.6911 9.9253 50.753 9.45576 51.8726 9.42045C52.3432 9.3979 52.8124 9.48593 53.2428 9.6775C53.6731 9.86908 54.0525 10.1589 54.3506 10.5236V9.65787L56.8286 9.65959ZM54.3515 13.7319C54.3686 13.3216 54.2625 12.9156 54.0469 12.5662C53.8314 12.2166 53.5161 11.9397 53.1418 11.7709C52.7675 11.602 52.3513 11.5492 51.9466 11.6189C51.5419 11.6887 51.1675 11.878 50.8712 12.1624C50.5751 12.4468 50.3708 12.8134 50.2847 13.2148C50.1986 13.6163 50.2346 14.0344 50.3882 14.4153C50.5417 14.7961 50.8057 15.1223 51.1462 15.3519C51.4867 15.5814 51.8881 15.7038 52.2986 15.7033C52.5661 15.722 52.8345 15.6844 53.0866 15.5931C53.3387 15.5017 53.5688 15.3585 53.7622 15.1728C53.9556 14.9871 54.108 14.7629 54.2095 14.5147C54.3109 14.2666 54.3594 13.9999 54.3515 13.7319Z" fill="#777777"/>
<path d="M58.2706 13.9021C58.2671 13.0119 58.5278 12.1405 59.0199 11.3986C59.5119 10.6567 60.213 10.0774 61.0345 9.73428C61.856 9.39108 62.7608 9.29945 63.6344 9.47097C64.508 9.64248 65.311 10.0693 65.9418 10.6976C66.5726 11.3258 67.0027 12.1272 67.1777 13.0001C67.3527 13.873 67.2647 14.7782 66.9249 15.6011C66.585 16.4239 66.0086 17.1274 65.2686 17.6223C64.5285 18.1173 63.6584 18.3816 62.7681 18.3816C62.1771 18.3883 61.5907 18.2772 61.0432 18.0547C60.4957 17.8321 59.998 17.5027 59.5793 17.0857C59.1605 16.6687 58.8291 16.1723 58.6045 15.6257C58.3797 15.0791 58.2663 14.4931 58.2706 13.9021ZM64.7198 13.9021C64.7091 13.5184 64.5856 13.1463 64.3647 12.8323C64.1438 12.5185 63.8352 12.2766 63.4776 12.1371C63.1199 11.9976 62.7291 11.9665 62.354 12.048C61.9788 12.1294 61.6359 12.3195 61.3683 12.5947C61.1007 12.8699 60.92 13.2179 60.849 13.5952C60.778 13.9724 60.8199 14.3623 60.9693 14.7159C61.1187 15.0696 61.3689 15.3713 61.6888 15.5834C62.0088 15.7956 62.3841 15.9087 62.7681 15.9087C63.0309 15.9157 63.2925 15.8682 63.5361 15.7691C63.7797 15.67 64.0002 15.5215 64.1835 15.3331C64.3669 15.1445 64.5093 14.92 64.6015 14.6737C64.6938 14.4275 64.7341 14.1648 64.7198 13.9021Z" fill="#777777"/>
<path d="M68.4521 7.38534C68.4521 7.08324 68.5417 6.78793 68.7095 6.53675C68.8774 6.28557 69.116 6.08979 69.3951 5.97418C69.6742 5.85857 69.9813 5.82832 70.2776 5.88726C70.5738 5.9462 70.8461 6.09167 71.0597 6.30529C71.2733 6.5189 71.4187 6.79106 71.4777 7.08735C71.5366 7.38364 71.5063 7.69076 71.3908 7.96986C71.2751 8.24896 71.0794 8.48751 70.8282 8.65537C70.577 8.8232 70.2817 8.91277 69.9796 8.91277C69.5758 8.90874 69.1895 8.74657 68.9039 8.46095C68.6184 8.17537 68.4562 7.78919 68.4521 7.38534ZM68.7093 9.65934H71.2559V18.1451H68.7059L68.7093 9.65934Z" fill="#777777"/>
<path d="M82.2476 13.9025C82.277 14.4633 82.1953 15.0244 82.0071 15.5535C81.8189 16.0826 81.528 16.5693 81.151 16.9856C80.7742 17.4019 80.3186 17.7396 79.8107 17.9792C79.3028 18.2188 78.7526 18.3557 78.1916 18.3819C77.7198 18.4076 77.2483 18.3281 76.8111 18.149C76.3739 17.9699 75.9821 17.6958 75.6639 17.3465V21.5388H73.1182V9.65963H75.6639V10.4568C75.9821 10.1077 76.3741 9.83381 76.8113 9.65492C77.2485 9.47595 77.7199 9.39649 78.1916 9.42221C78.7527 9.44835 79.3031 9.58515 79.8111 9.82481C80.3191 10.0645 80.7747 10.4022 81.1516 10.8186C81.5286 11.235 81.8195 11.7218 82.0076 12.2511C82.1957 12.7803 82.2773 13.3416 82.2476 13.9025ZM79.7019 13.9025C79.6919 13.5054 79.5651 13.12 79.3372 12.7945C79.1093 12.4692 78.7905 12.2182 78.4207 12.0732C78.0509 11.9281 77.6465 11.8952 77.2581 11.9789C76.8697 12.0625 76.5147 12.2587 76.2373 12.5431C75.9599 12.8276 75.7727 13.1875 75.6989 13.5779C75.6251 13.9682 75.668 14.3716 75.8224 14.7377C75.9766 15.1038 76.2356 15.4161 76.5666 15.6358C76.8977 15.8554 77.286 15.9726 77.6833 15.9725C77.956 15.9847 78.2283 15.939 78.4822 15.8385C78.736 15.7381 78.9658 15.5851 79.1563 15.3897C79.3469 15.1942 79.494 14.9607 79.5881 14.7044C79.6821 14.4481 79.7209 14.1748 79.7019 13.9025Z" fill="#777777"/>
<path d="M90.1035 15.5988C90.1035 17.5506 88.4072 18.382 86.5746 18.382C85.8341 18.449 85.0907 18.2925 84.4402 17.9324C83.7897 17.5724 83.2622 17.0256 82.9258 16.3626L85.1312 15.1068C85.2204 15.4133 85.4121 15.6799 85.6741 15.8621C85.9361 16.0443 86.2532 16.1311 86.5712 16.108C87.1815 16.108 87.4875 15.9211 87.4875 15.5826C87.4875 14.6483 83.3123 15.1411 83.3123 12.2054C83.3123 10.3548 84.8741 9.42227 86.6389 9.42227C87.3024 9.40127 87.9589 9.55864 88.5409 9.87792C89.1229 10.1973 89.6089 10.6668 89.9475 11.2377L87.7755 12.4086C87.6804 12.1863 87.5218 11.997 87.3195 11.8642C87.1172 11.7314 86.8806 11.6611 86.6389 11.662C86.1975 11.662 85.9258 11.8334 85.9258 12.1368C85.9292 13.1046 90.1035 12.4591 90.1035 15.5988Z" fill="#777777"/>
<path d="M99.4026 9.65967V18.1454H96.8569V17.3474C96.5629 17.6995 96.1901 17.977 95.7683 18.157C95.3466 18.337 94.8889 18.4144 94.4312 18.3828C92.7169 18.3828 91.2598 17.1614 91.2598 14.8685V9.65967H93.8055V14.4957C93.7841 14.6978 93.8072 14.9021 93.8732 15.0944C93.9383 15.2867 94.0455 15.4624 94.1861 15.6093C94.3266 15.7561 94.4972 15.8705 94.6866 15.9447C94.8752 16.0188 95.0783 16.0509 95.2815 16.0385C96.2149 16.0385 96.8595 15.496 96.8595 14.2908V9.66224L99.4026 9.65967Z" fill="#777777"/>
<path d="M114 12.9345V18.1442H111.454V13.1547C111.454 12.3062 111.047 11.7636 110.233 11.7636C109.384 11.7636 108.909 12.3576 108.909 13.3587V18.1442H106.364V13.1547C106.364 12.3062 105.957 11.7636 105.142 11.7636C104.293 11.7636 103.818 12.3576 103.818 13.3587V18.1442H101.272V9.65846H103.818V10.4385C104.082 10.0924 104.428 9.81797 104.825 9.64029C105.223 9.46252 105.658 9.38717 106.092 9.42103C106.528 9.39969 106.961 9.49166 107.351 9.68786C107.74 9.88397 108.072 10.1778 108.315 10.5405C108.597 10.161 108.97 9.85929 109.401 9.66352C109.831 9.46775 110.304 9.38435 110.776 9.42103C112.724 9.42189 114 10.813 114 12.9345Z" fill="#777777"/>
<path d="M116.153 9.60739C117.196 9.60739 118.042 8.76156 118.042 7.71824C118.042 6.6749 117.196 5.8291 116.153 5.8291C115.11 5.8291 114.264 6.6749 114.264 7.71824C114.264 8.76156 115.11 9.60739 116.153 9.60739Z" fill="#777777"/>
</svg>
