<svg width="120" height="32" viewBox="0 0 120 32" fill="none" xmlns="http://www.w3.org/2000/svg">
<path d="M35.0088 10.2363H37.927V22.0545H35.0088V10.2363ZM39.0906 17.6091C39.0906 14.6818 40.9088 12.9272 43.6361 12.9272C46.3633 12.9272 48.1815 14.6818 48.1815 17.6091C48.1815 20.5363 46.427 22.3091 43.6361 22.3091C40.8452 22.3091 39.0906 20.6 39.0906 17.6091ZM45.2906 17.6091C45.2906 16 44.6633 15.0545 43.6633 15.0545C42.6633 15.0545 42.0452 15.9636 42.0452 17.6091C42.0452 19.2545 42.6633 20.1545 43.6633 20.1545C44.6633 20.1545 45.3088 19.2545 45.3088 17.6181L45.2906 17.6091ZM49.3452 22.6636H52.1633C52.2916 22.967 52.5157 23.2201 52.8013 23.3842C53.087 23.5484 53.4184 23.6146 53.7452 23.5727C54.8633 23.5727 55.4452 22.9727 55.4452 22.0818V20.4454H55.4542C55.2134 20.955 54.824 21.3796 54.3372 21.6636C53.8504 21.9476 53.2891 22.0775 52.727 22.0363C50.5906 22.0363 49.1724 20.4091 49.1724 17.6091C49.1724 14.8091 50.527 13.0636 52.8088 13.0636C53.3852 13.0328 53.9572 13.1814 54.4455 13.4891C54.934 13.7969 55.315 14.2485 55.5361 14.7818H55.4542V13.1363H58.3452V21.9909C58.3452 24.1272 56.4542 25.4636 53.6724 25.4636C51.1452 25.4545 49.527 24.3 49.3633 22.6727L49.3452 22.6636ZM55.4542 17.6091C55.4542 16.1818 54.7997 15.2818 53.7633 15.2818C52.727 15.2818 52.0906 16.1909 52.0906 17.6091C52.0906 19.0272 52.7179 19.8636 53.7633 19.8636C54.8088 19.8636 55.4542 19.0909 55.4542 17.6091ZM59.4997 17.6091C59.4997 14.6818 61.3179 12.9272 64.0452 12.9272C66.7724 12.9272 68.5906 14.6818 68.5906 17.6091C68.5906 20.5363 66.827 22.3091 64.0452 22.3091C61.2633 22.3091 59.5179 20.6 59.5179 17.6091H59.4997ZM65.6997 17.6091C65.6997 16 65.0633 15.0545 64.0724 15.0545C63.0815 15.0545 62.4542 15.9636 62.4542 17.6091C62.4542 19.2545 63.0724 20.1545 64.0724 20.1545C65.0724 20.1545 65.7179 19.2545 65.7179 17.6181L65.6997 17.6091ZM69.7724 10.9818C69.7597 10.6845 69.8362 10.3902 69.9922 10.1369C70.1481 9.88342 70.3762 9.68251 70.6473 9.55987C70.9184 9.43715 71.22 9.39842 71.5132 9.4486C71.8065 9.49869 72.0781 9.63542 72.293 9.84115C72.5079 10.047 72.6563 10.3122 72.7192 10.6031C72.7821 10.8939 72.7565 11.1969 72.6458 11.473C72.5351 11.7491 72.3442 11.9859 72.0979 12.1527C71.8515 12.3195 71.5609 12.4088 71.2633 12.4091C71.0732 12.4139 70.884 12.3809 70.7067 12.3121C70.5294 12.2431 70.3675 12.1397 70.2305 12.0078C70.0935 11.8759 69.9841 11.7181 69.9086 11.5434C69.8331 11.3689 69.793 11.1811 69.7906 10.9909L69.7724 10.9818ZM69.7724 13.1272H72.727V22.0909H69.8179L69.7724 13.1272ZM83.3542 17.6091C83.3542 20.5272 82.0452 22.2181 79.8179 22.2181C79.2477 22.2533 78.6804 22.1126 78.1927 21.8151C77.705 21.5176 77.3203 21.0776 77.0906 20.5545H77.0361V24.9727H74.1179V13.1545H77.0179V14.7545H77.0724C77.2942 14.2211 77.6752 13.7691 78.1632 13.46C78.6512 13.1509 79.2227 12.9998 79.7997 13.0272C82.0906 13.0091 83.4088 14.6909 83.4088 17.6181L83.3542 17.6091ZM80.3815 17.6091C80.3815 16.1909 79.7179 15.2727 78.6906 15.2727C77.6633 15.2727 77.0179 16.1818 77.0088 17.6091C76.9997 19.0363 77.6633 19.9363 78.6906 19.9363C79.7179 19.9363 80.4361 19.0909 80.4361 17.6181L80.3815 17.6091ZM88.3361 12.9181C90.7815 12.9181 92.2997 14.0727 92.3179 15.9272H89.6543C89.6543 15.2818 89.1179 14.8818 88.3179 14.8818C87.5179 14.8818 87.1361 15.1909 87.1361 15.6545C87.1361 16.1181 87.4724 16.2636 88.1452 16.4L90.0179 16.7818C91.8361 17.1636 92.5633 17.8909 92.5633 19.2454C92.5633 21.0636 90.8815 22.3 88.3815 22.3C85.8815 22.3 84.2542 21.1 84.1361 19.2727H86.9633C87.0452 19.9363 87.5724 20.3272 88.427 20.3272C89.2815 20.3272 89.6815 20.0545 89.6815 19.5727C89.6815 19.0909 89.4088 19.0091 88.7088 18.8636L87.0179 18.5091C85.2633 18.1363 84.3452 17.2181 84.3452 15.8454C84.3997 14.0636 85.927 12.9272 88.3906 12.9272L88.3361 12.9181ZM102.336 22.0818H99.5088V20.4H99.4542C99.2961 20.961 98.9515 21.4512 98.477 21.79C98.0024 22.1288 97.427 22.2958 96.8452 22.2636C96.4061 22.2779 95.9679 22.1991 95.5615 22.0324C95.1552 21.8658 94.7879 21.615 94.4851 21.2965C94.1815 20.978 93.9497 20.599 93.8033 20.1844C93.657 19.7699 93.5997 19.329 93.6361 18.8909V13.1363H96.5542V18.2636C96.5542 19.3181 97.1088 19.8909 98.0179 19.8909C98.2315 19.8892 98.4415 19.8419 98.6352 19.7521C98.8288 19.6621 99.0006 19.5318 99.1388 19.3698C99.2779 19.2078 99.3806 19.0179 99.4397 18.813C99.4979 18.608 99.5124 18.3928 99.4815 18.1818V13.1363H102.391L102.336 22.0818ZM103.745 13.1272H106.582V14.8545H106.645C106.802 14.3011 107.138 13.8154 107.6 13.4732C108.062 13.1311 108.625 12.9519 109.2 12.9636C109.777 12.9134 110.352 13.0803 110.812 13.4317C111.273 13.7831 111.586 14.2937 111.691 14.8636H111.818C112 14.2906 112.365 13.7937 112.859 13.4501C113.352 13.1065 113.945 12.9355 114.545 12.9636C114.944 12.9484 115.342 13.0177 115.712 13.1669C116.083 13.316 116.418 13.5417 116.695 13.8292C116.972 14.1167 117.185 14.4595 117.321 14.8351C117.457 15.2108 117.512 15.6108 117.482 16.0091V22.0909H114.545V16.7545C114.545 15.8454 114.118 15.3363 113.291 15.3363C113.107 15.3333 112.925 15.3701 112.757 15.4439C112.589 15.5178 112.44 15.6271 112.318 15.7644C112.196 15.9018 112.105 16.0637 112.052 16.2393C111.999 16.415 111.984 16.6 112.009 16.7818V22.0909H109.227V16.7272C109.227 15.8181 108.782 15.3363 107.982 15.3363C107.796 15.3349 107.612 15.3731 107.443 15.4483C107.273 15.5237 107.122 15.6343 106.999 15.773C106.876 15.9116 106.784 16.075 106.73 16.2521C106.674 16.4292 106.658 16.6161 106.682 16.8V22.0909H103.763L103.745 13.1272Z" fill="#777777"/>
<path d="M29.2365 11.0091C29.2365 9.19974 28.6902 7.43253 27.6689 5.93894C26.6476 4.44536 25.199 3.29504 23.5129 2.63868C21.8268 1.98231 19.9817 1.85049 18.2195 2.26048C16.4571 2.67047 14.8597 3.60316 13.6365 4.93638H2.29102V28.8818H26.2455V17.6909C27.1857 16.85 27.9381 15.8203 28.4535 14.6689C28.9688 13.5176 29.2356 12.2706 29.2365 11.0091ZM24.6274 11.0091C24.6292 11.8761 24.3737 12.7242 23.8934 13.446C23.4129 14.1677 22.7293 14.7308 21.9287 15.0638C21.1282 15.3969 20.2469 15.485 19.3963 15.3169C18.5457 15.1489 17.7641 14.7323 17.1504 14.1198C16.5366 13.5074 16.1185 12.7267 15.9486 11.8764C15.7788 11.0262 15.8651 10.1447 16.1965 9.34347C16.5278 8.54225 17.0895 7.85737 17.8102 7.37549C18.531 6.89361 19.3785 6.63639 20.2455 6.63638C21.4061 6.63638 22.5193 7.09679 23.3407 7.91657C24.1623 8.73635 24.625 9.84856 24.6274 11.0091ZM21.6365 24.2727H6.90011V9.54547H11.391C11.3043 10.0287 11.2586 10.5183 11.2546 11.0091C11.2571 13.3929 12.2051 15.6784 13.8907 17.364C15.5763 19.0496 17.8617 19.9977 20.2455 20C20.7116 19.9976 21.1767 19.958 21.6365 19.8818V24.2727Z" fill="#777777"/>
</svg>
