<svg width="84" height="84" viewBox="0 0 84 84" fill="none" xmlns="http://www.w3.org/2000/svg">
<path d="M42.001 56C45.4426 56 49.162 55.4027 53.159 54.208C57.1536 53.011 62.6801 50.8667 69.7385 47.775C69.8551 47.1333 69.9286 46.5068 69.959 45.8955C69.987 45.2818 70.001 44.6542 70.001 44.0125C70.001 43.3708 69.7536 42.8458 69.259 42.4375C68.762 42.0292 68.1926 41.9125 67.551 42.0875C66.7343 42.3792 65.8301 42.6848 64.8385 43.0045C63.8468 43.3265 62.5926 43.8083 61.076 44.45C57.051 46.1417 53.6093 47.3223 50.751 47.992C47.8926 48.664 44.976 49 42.001 49C38.9676 49 35.9926 48.65 33.076 47.95C30.1593 47.25 26.601 46.0542 22.401 44.3625C20.8843 43.7208 19.7176 43.2542 18.901 42.9625L16.451 42.0875C15.8093 41.8542 15.2411 41.9557 14.7465 42.392C14.2495 42.8307 14.001 43.3708 14.001 44.0125C14.001 44.6542 14.0161 45.2818 14.0465 45.8955C14.0745 46.5068 14.1468 47.1333 14.2635 47.775C20.1551 50.575 25.39 52.6458 29.968 53.9875C34.5483 55.3292 38.5593 56 42.001 56ZM42.001 70C47.4843 70 52.3551 68.8042 56.6135 66.4125C60.8718 64.0208 64.1968 60.8125 66.5885 56.7875C61.4551 58.9458 56.9343 60.5208 53.026 61.5125C49.1176 62.5042 45.4426 63 42.001 63C38.6176 63 34.8551 62.489 30.7135 61.467C26.5718 60.4473 22.1093 58.9167 17.326 56.875C19.6593 60.9 22.9691 64.0943 27.2555 66.458C31.5441 68.8193 36.4593 70 42.001 70ZM42.001 35C38.151 35 34.8551 33.6292 32.1135 30.8875C29.3718 28.1458 28.001 24.85 28.001 21C28.001 17.15 29.3718 13.8542 32.1135 11.1125C34.8551 8.37083 38.151 7 42.001 7C45.851 7 49.1468 8.37083 51.8885 11.1125C54.6301 13.8542 56.001 17.15 56.001 21C56.001 24.85 54.6301 28.1458 51.8885 30.8875C49.1468 33.6292 45.851 35 42.001 35ZM42.001 28C43.926 28 45.5745 27.314 46.9465 25.942C48.3161 24.5723 49.001 22.925 49.001 21C49.001 19.075 48.3161 17.4277 46.9465 16.058C45.5745 14.686 43.926 14 42.001 14C40.076 14 38.4286 14.686 37.059 16.058C35.687 17.4277 35.001 19.075 35.001 21C35.001 22.925 35.687 24.5723 37.059 25.942C38.4286 27.314 40.076 28 42.001 28ZM42.001 77C31.676 77 23.2608 73.9375 16.7555 67.8125C10.2525 61.6875 7.00098 53.7542 7.00098 44.0125C7.00098 40.9792 8.21198 38.5583 10.634 36.75C13.0536 34.9417 15.6926 34.5042 18.551 35.4375C19.4843 35.7292 20.462 36.064 21.484 36.442C22.5036 36.8223 23.7135 37.3042 25.1135 37.8875C28.8468 39.4042 31.9385 40.4693 34.3885 41.083C36.8385 41.6943 39.376 42 42.001 42C44.5093 42 46.9885 41.7083 49.4385 41.125C51.8885 40.5417 54.8926 39.4917 58.451 37.975C60.1426 37.3333 61.4995 36.8083 62.5215 36.4C63.5411 35.9917 64.5468 35.6417 65.5385 35.35C68.3968 34.5333 71.0218 35.0292 73.4135 36.8375C75.8051 38.6458 77.001 41.0375 77.001 44.0125C77.001 48.6208 76.0968 52.9223 74.2885 56.917C72.4801 60.914 70.001 64.4 66.851 67.375C63.701 70.35 59.9968 72.6973 55.7385 74.417C51.4801 76.139 46.901 77 42.001 77Z" fill="white"/>
</svg>
