<svg width="31" height="30" viewBox="0 0 31 30" fill="none" xmlns="http://www.w3.org/2000/svg">
<rect x="0.5" y="0.00012207" width="30" height="30" rx="15" fill="#FCF8F4"/>
<path d="M20.381 7.50012C20.7914 7.50012 21.1851 7.67572 21.4753 7.98828C21.7655 8.30084 21.9286 8.72476 21.9286 9.16679V20.8335C21.9286 21.2755 21.7655 21.6994 21.4753 22.012C21.1851 22.3245 20.7914 22.5001 20.381 22.5001H9.54762C9.13716 22.5001 8.74352 22.3245 8.45329 22.012C8.16305 21.6994 8 21.2755 8 20.8335V9.16679C8 8.72476 8.16305 8.30084 8.45329 7.98828C8.74352 7.67572 9.13716 7.50012 9.54762 7.50012H20.381ZM19.994 20.4168V16.0001C19.994 15.2796 19.7283 14.5886 19.2552 14.0791C18.7821 13.5697 18.1405 13.2835 17.4714 13.2835C16.8137 13.2835 16.0476 13.7168 15.6762 14.3668V13.4418H13.5173V20.4168H15.6762V16.3085C15.6762 15.6668 16.156 15.1418 16.7518 15.1418C17.0391 15.1418 17.3147 15.2647 17.5178 15.4835C17.721 15.7023 17.8351 15.999 17.8351 16.3085V20.4168H19.994ZM11.0024 12.1335C11.3472 12.1335 11.6778 11.986 11.9216 11.7234C12.1654 11.4609 12.3024 11.1048 12.3024 10.7335C12.3024 9.95846 11.722 9.32512 11.0024 9.32512C10.6555 9.32512 10.3229 9.4735 10.0777 9.73761C9.83242 10.0017 9.69464 10.3599 9.69464 10.7335C9.69464 11.5085 10.2827 12.1335 11.0024 12.1335ZM12.078 20.4168V13.4418H9.93452V20.4168H12.078Z" fill="url(#paint0_linear_105_381)"/>
<defs>
<linearGradient id="paint0_linear_105_381" x1="21.9286" y1="16.4621" x2="8" y2="16.4621" gradientUnits="userSpaceOnUse">
<stop stop-color="#007D6E"/>
<stop offset="1" stop-color="#5EB47C"/>
</linearGradient>
</defs>
</svg>
