<svg width="48" height="48" viewBox="0 0 48 48" fill="none" xmlns="http://www.w3.org/2000/svg">
<path d="M32.68 3.99976C39.46 3.99976 44 8.75976 44 15.8398V32.1818C44 39.2398 39.46 43.9998 32.68 43.9998H15.34C8.56 43.9998 4 39.2398 4 32.1818V15.8398C4 8.75976 8.56 3.99976 15.34 3.99976H32.68ZM32.36 17.9998C31.68 17.3198 30.56 17.3198 29.88 17.9998L21.62 26.2598L18.12 22.7598C17.44 22.0798 16.32 22.0798 15.64 22.7598C14.96 23.4398 14.96 24.5398 15.64 25.2398L20.4 29.9798C20.74 30.3198 21.18 30.4798 21.62 30.4798C22.08 30.4798 22.52 30.3198 22.86 29.9798L32.36 20.4798C33.04 19.7998 33.04 18.6998 32.36 17.9998Z" fill="white"/>
</svg>
