<svg width="152" height="30" viewBox="0 0 152 30" fill="none" xmlns="http://www.w3.org/2000/svg">
<path d="M0.5 15.0001C0.5 6.71585 7.21573 0.00012207 15.5 0.00012207C23.7843 0.00012207 30.5 6.71585 30.5 15.0001C30.5 23.2844 23.7843 30.0001 15.5 30.0001C7.21573 30.0001 0.5 23.2844 0.5 15.0001Z" fill="#FCF8F4"/>
<path d="M12.3187 14.7274C12.3187 13.1208 13.6207 11.8181 15.2273 11.8181C16.8339 11.8181 18.1366 13.1208 18.1366 14.7274C18.1366 16.334 16.8339 17.6367 15.2273 17.6367C13.6207 17.6367 12.3187 16.334 12.3187 14.7274ZM10.7459 14.7274C10.7459 17.2025 12.7522 19.2088 15.2273 19.2088C17.7024 19.2088 19.7086 17.2025 19.7086 14.7274C19.7086 12.2523 17.7024 10.246 15.2273 10.246C12.7522 10.246 10.7459 12.2523 10.7459 14.7274ZM18.8387 10.0684C18.8387 10.6464 19.3075 11.1159 19.8863 11.1159C20.4643 11.1159 20.9338 10.6464 20.9338 10.0684C20.9338 9.49033 20.465 9.02153 19.8863 9.02153C19.3075 9.02153 18.8387 9.49033 18.8387 10.0684ZM11.7011 21.8312C10.8502 21.7924 10.3878 21.6507 10.0804 21.5309C9.67298 21.3722 9.38254 21.1833 9.07659 20.8781C8.77135 20.5728 8.58172 20.2824 8.42381 19.8749C8.30397 19.5676 8.16227 19.1051 8.1235 18.2543C8.0812 17.3343 8.07274 17.058 8.07274 14.7274C8.07274 12.3968 8.08191 12.1212 8.1235 11.2005C8.16227 10.3497 8.30467 9.88792 8.42381 9.57985C8.58242 9.17239 8.77135 8.88196 9.07659 8.57601C9.38183 8.27076 9.67227 8.08113 10.0804 7.92322C10.3878 7.80338 10.8502 7.66169 11.7011 7.62292C12.6211 7.58062 12.8974 7.57216 15.2273 7.57216C17.5578 7.57216 17.8335 7.58132 18.7541 7.62292C19.605 7.66169 20.0667 7.80409 20.3748 7.92322C20.7823 8.08113 21.0727 8.27076 21.3787 8.57601C21.6839 8.88125 21.8728 9.17239 22.0314 9.57985C22.1513 9.88721 22.293 10.3497 22.3318 11.2005C22.3741 12.1212 22.3825 12.3968 22.3825 14.7274C22.3825 17.0573 22.3741 17.3336 22.3318 18.2543C22.293 19.1051 22.1506 19.5676 22.0314 19.8749C21.8728 20.2824 21.6839 20.5728 21.3787 20.8781C21.0734 21.1833 20.7823 21.3722 20.3748 21.5309C20.0675 21.6507 19.605 21.7924 18.7541 21.8312C17.8342 21.8735 17.5578 21.8819 15.2273 21.8819C12.8974 21.8819 12.6211 21.8735 11.7011 21.8312ZM11.6292 6.05299C10.7001 6.09529 10.0656 6.24262 9.51084 6.45834C8.93701 6.6811 8.45059 6.98 7.96488 7.46501C7.47988 7.95001 7.18098 8.43643 6.95822 9.01096C6.7425 9.56576 6.59517 10.2002 6.55287 11.1293C6.50987 12.0599 6.5 12.3574 6.5 14.7274C6.5 17.0974 6.50987 17.3949 6.55287 18.3255C6.59517 19.2546 6.7425 19.889 6.95822 20.4438C7.18098 21.0177 7.47917 21.5048 7.96488 21.9898C8.44989 22.4748 8.93631 22.773 9.51084 22.9965C10.0663 23.2122 10.7001 23.3595 11.6292 23.4018C12.5604 23.4441 12.8572 23.4547 15.2273 23.4547C17.598 23.4547 17.8948 23.4448 18.8253 23.4018C19.7545 23.3595 20.3889 23.2122 20.9437 22.9965C21.5175 22.773 22.004 22.4748 22.4897 21.9898C22.9747 21.5048 23.2729 21.0177 23.4963 20.4438C23.712 19.889 23.8601 19.2546 23.9017 18.3255C23.944 17.3942 23.9538 17.0974 23.9538 14.7274C23.9538 12.3574 23.944 12.0599 23.9017 11.1293C23.8594 10.2002 23.712 9.56576 23.4963 9.01096C23.2729 8.43713 22.9747 7.95072 22.4897 7.46501C22.0047 6.98 21.5175 6.6811 20.9444 6.45834C20.3889 6.24262 19.7545 6.09459 18.826 6.05299C17.8955 6.0107 17.598 6.00012 15.228 6.00012C12.8572 6.00012 12.5604 6.00999 11.6292 6.05299Z" fill="url(#paint0_linear_105_380)"/>
<path d="M40.5 15.0001C40.5 6.71585 47.2157 0.00012207 55.5 0.00012207C63.7843 0.00012207 70.5 6.71585 70.5 15.0001C70.5 23.2844 63.7843 30.0001 55.5 30.0001C47.2157 30.0001 40.5 23.2844 40.5 15.0001Z" fill="#FCF8F4"/>
<path d="M63.9545 14.7274C63.9545 9.90746 60.0472 6.00012 55.2273 6.00012C50.4073 6.00012 46.5 9.90746 46.5 14.7274C46.5 18.9605 49.5138 22.4896 53.5127 23.2863V16.6416H52.0894V14.2689H53.5127V12.8445C53.5127 10.9088 54.3162 9.75793 56.5995 9.75793H58.5004V12.1309H57.3122C56.4233 12.1309 56.3645 12.4623 56.3645 13.0811L56.3613 14.2687H58.5137L58.2618 16.6412H56.3613V23.3817C60.6455 22.8257 63.9545 19.163 63.9545 14.7274Z" fill="url(#paint1_linear_105_380)"/>
<path d="M80.5 15.0001C80.5 6.71585 87.2157 0.00012207 95.5 0.00012207C103.784 0.00012207 110.5 6.71585 110.5 15.0001C110.5 23.2844 103.784 30.0001 95.5 30.0001C87.2157 30.0001 80.5 23.2844 80.5 15.0001Z" fill="#FCF8F4"/>
<path d="M96.0591 21.6419L92.3032 21.5732C91.0871 21.5493 89.868 21.5971 88.6758 21.3492C86.8621 20.9788 86.7337 19.1629 86.5992 17.6397C86.4139 15.4982 86.4857 13.3179 86.8353 11.1943C87.0326 10.0028 87.8093 9.29178 89.0104 9.21441C93.0651 8.93362 97.1467 8.96689 101.192 9.09789C101.62 9.1099 102.05 9.17554 102.471 9.25025C104.551 9.61465 104.602 11.6725 104.736 13.4048C104.871 15.155 104.814 16.9142 104.557 18.6525C104.351 20.0917 103.957 21.2987 102.292 21.4152C100.206 21.5675 98.1685 21.6902 96.077 21.6511C96.077 21.6419 96.065 21.6419 96.0591 21.6419ZM93.851 17.9981C95.4227 17.0961 96.9644 16.2091 98.5272 15.3131C96.9525 14.411 95.4137 13.524 93.851 12.628V17.9981Z" fill="url(#paint2_linear_105_380)"/>
<path d="M121.5 15.0001C121.5 6.71585 128.216 0.00012207 136.5 0.00012207C144.784 0.00012207 151.5 6.71585 151.5 15.0001C151.5 23.2844 144.784 30.0001 136.5 30.0001C128.216 30.0001 121.5 23.2844 121.5 15.0001Z" fill="#FCF8F4"/>
<path d="M133.161 22.6343C139.954 22.6343 143.668 17.0047 143.668 12.1229C143.668 11.963 143.665 11.8038 143.658 11.6453C144.381 11.1221 145.004 10.4743 145.5 9.73229C144.838 10.0266 144.126 10.2247 143.379 10.314C144.142 9.85661 144.727 9.13306 145.003 8.2706C144.278 8.7008 143.485 9.00408 142.658 9.16734C141.984 8.44924 141.025 8.00012 139.962 8.00012C137.923 8.00012 136.269 9.65459 136.269 11.694C136.269 11.9839 136.302 12.2658 136.365 12.5363C133.296 12.3818 130.574 10.9118 128.753 8.67644C128.425 9.24023 128.252 9.881 128.253 10.5333C128.253 11.815 128.905 12.9465 129.896 13.6085C129.31 13.5906 128.736 13.4321 128.223 13.1464C128.223 13.1619 128.223 13.177 128.223 13.1936C128.223 14.9827 129.496 16.4766 131.186 16.815C130.868 16.9015 130.541 16.9452 130.212 16.945C129.974 16.945 129.743 16.9216 129.518 16.8784C129.988 18.3463 131.351 19.4145 132.968 19.4444C131.704 20.4354 130.111 21.0257 128.381 21.0257C128.087 21.026 127.792 21.0089 127.5 20.9745C129.134 22.0225 131.075 22.6343 133.161 22.6343Z" fill="url(#paint3_linear_105_380)"/>
<defs>
<linearGradient id="paint0_linear_105_380" x1="151.5" y1="17.9242" x2="0.500002" y2="17.9242" gradientUnits="userSpaceOnUse">
<stop stop-color="#007D6E"/>
<stop offset="1" stop-color="#5EB47C"/>
</linearGradient>
<linearGradient id="paint1_linear_105_380" x1="151.5" y1="17.9242" x2="0.500002" y2="17.9242" gradientUnits="userSpaceOnUse">
<stop stop-color="#007D6E"/>
<stop offset="1" stop-color="#5EB47C"/>
</linearGradient>
<linearGradient id="paint2_linear_105_380" x1="151.5" y1="17.9242" x2="0.500002" y2="17.9242" gradientUnits="userSpaceOnUse">
<stop stop-color="#007D6E"/>
<stop offset="1" stop-color="#5EB47C"/>
</linearGradient>
<linearGradient id="paint3_linear_105_380" x1="151.5" y1="17.9242" x2="0.500002" y2="17.9242" gradientUnits="userSpaceOnUse">
<stop stop-color="#007D6E"/>
<stop offset="1" stop-color="#5EB47C"/>
</linearGradient>
</defs>
</svg>
