<svg width="152" height="30" viewBox="0 0 152 30" fill="none" xmlns="http://www.w3.org/2000/svg">
<path d="M0.5 15C0.5 6.71573 7.21573 0 15.5 0C23.7843 0 30.5 6.71573 30.5 15C30.5 23.2843 23.7843 30 15.5 30C7.21573 30 0.5 23.2843 0.5 15Z" fill="#FCF8F4"/>
<path d="M12.3187 14.7273C12.3187 13.1207 13.6207 11.8179 15.2273 11.8179C16.8339 11.8179 18.1366 13.1207 18.1366 14.7273C18.1366 16.3339 16.8339 17.6366 15.2273 17.6366C13.6207 17.6366 12.3187 16.3339 12.3187 14.7273ZM10.7459 14.7273C10.7459 17.2024 12.7522 19.2086 15.2273 19.2086C17.7024 19.2086 19.7086 17.2024 19.7086 14.7273C19.7086 12.2522 17.7024 10.2459 15.2273 10.2459C12.7522 10.2459 10.7459 12.2522 10.7459 14.7273ZM18.8387 10.0683C18.8387 10.6463 19.3075 11.1158 19.8863 11.1158C20.4643 11.1158 20.9338 10.6463 20.9338 10.0683C20.9338 9.4902 20.465 9.02141 19.8863 9.02141C19.3075 9.02141 18.8387 9.4902 18.8387 10.0683ZM11.7011 21.831C10.8502 21.7923 10.3878 21.6506 10.0804 21.5307C9.67298 21.3721 9.38254 21.1832 9.07659 20.878C8.77135 20.5727 8.58172 20.2823 8.42381 19.8748C8.30397 19.5675 8.16227 19.105 8.1235 18.2541C8.0812 17.3342 8.07274 17.0578 8.07274 14.7273C8.07274 12.3967 8.08191 12.1211 8.1235 11.2004C8.16227 10.3495 8.30467 9.8878 8.42381 9.57973C8.58242 9.17227 8.77135 8.88183 9.07659 8.57588C9.38183 8.27064 9.67227 8.08101 10.0804 7.9231C10.3878 7.80326 10.8502 7.66157 11.7011 7.62279C12.6211 7.5805 12.8974 7.57204 15.2273 7.57204C17.5578 7.57204 17.8335 7.5812 18.7541 7.62279C19.605 7.66157 20.0667 7.80397 20.3748 7.9231C20.7823 8.08101 21.0727 8.27064 21.3787 8.57588C21.6839 8.88113 21.8728 9.17227 22.0314 9.57973C22.1513 9.88709 22.293 10.3495 22.3318 11.2004C22.3741 12.1211 22.3825 12.3967 22.3825 14.7273C22.3825 17.0571 22.3741 17.3335 22.3318 18.2541C22.293 19.105 22.1506 19.5675 22.0314 19.8748C21.8728 20.2823 21.6839 20.5727 21.3787 20.878C21.0734 21.1832 20.7823 21.3721 20.3748 21.5307C20.0675 21.6506 19.605 21.7923 18.7541 21.831C17.8342 21.8733 17.5578 21.8818 15.2273 21.8818C12.8974 21.8818 12.6211 21.8733 11.7011 21.831ZM11.6292 6.05287C10.7001 6.09517 10.0656 6.2425 9.51084 6.45822C8.93701 6.68098 8.45059 6.97988 7.96488 7.46488C7.47988 7.94989 7.18098 8.43631 6.95822 9.01084C6.7425 9.56563 6.59517 10.2001 6.55287 11.1292C6.50987 12.0597 6.5 12.3572 6.5 14.7273C6.5 17.0973 6.50987 17.3948 6.55287 18.3253C6.59517 19.2545 6.7425 19.8889 6.95822 20.4437C7.18098 21.0175 7.47917 21.5047 7.96488 21.9897C8.44989 22.4747 8.93631 22.7729 9.51084 22.9963C10.0663 23.212 10.7001 23.3594 11.6292 23.4017C12.5604 23.444 12.8572 23.4545 15.2273 23.4545C17.598 23.4545 17.8948 23.4447 18.8253 23.4017C19.7545 23.3594 20.3889 23.212 20.9437 22.9963C21.5175 22.7729 22.004 22.4747 22.4897 21.9897C22.9747 21.5047 23.2729 21.0175 23.4963 20.4437C23.712 19.8889 23.8601 19.2545 23.9017 18.3253C23.944 17.3941 23.9538 17.0973 23.9538 14.7273C23.9538 12.3572 23.944 12.0597 23.9017 11.1292C23.8594 10.2001 23.712 9.56563 23.4963 9.01084C23.2729 8.43701 22.9747 7.95059 22.4897 7.46488C22.0047 6.97988 21.5175 6.68098 20.9444 6.45822C20.3889 6.2425 19.7545 6.09446 18.826 6.05287C17.8955 6.01057 17.598 6 15.228 6C12.8572 6 12.5604 6.00987 11.6292 6.05287Z" fill="url(#paint0_linear_105_1015)"/>
<path d="M40.5 15C40.5 6.71573 47.2157 0 55.5 0C63.7843 0 70.5 6.71573 70.5 15C70.5 23.2843 63.7843 30 55.5 30C47.2157 30 40.5 23.2843 40.5 15Z" fill="#FCF8F4"/>
<path d="M63.9545 14.7273C63.9545 9.90734 60.0472 6 55.2273 6C50.4073 6 46.5 9.90734 46.5 14.7273C46.5 18.9603 49.5138 22.4895 53.5127 23.2862V16.6415H52.0894V14.2687H53.5127V12.8444C53.5127 10.9087 54.3162 9.75781 56.5995 9.75781H58.5004V12.1308H57.3122C56.4233 12.1308 56.3645 12.4622 56.3645 13.081L56.3613 14.2686H58.5137L58.2618 16.6411H56.3613V23.3815C60.6455 22.8256 63.9545 19.1629 63.9545 14.7273Z" fill="url(#paint1_linear_105_1015)"/>
<path d="M80.5 15C80.5 6.71573 87.2157 0 95.5 0C103.784 0 110.5 6.71573 110.5 15C110.5 23.2843 103.784 30 95.5 30C87.2157 30 80.5 23.2843 80.5 15Z" fill="#FCF8F4"/>
<path d="M96.0591 21.6418L92.3032 21.5731C91.0871 21.5492 89.868 21.5969 88.6758 21.3491C86.8621 20.9787 86.7337 19.1628 86.5992 17.6396C86.4139 15.4981 86.4857 13.3178 86.8353 11.1942C87.0326 10.0027 87.8093 9.29166 89.0104 9.21428C93.0651 8.93349 97.1467 8.96677 101.192 9.09777C101.62 9.10978 102.05 9.17542 102.471 9.25013C104.551 9.61452 104.602 11.6724 104.736 13.4047C104.871 15.1549 104.814 16.9141 104.557 18.6524C104.351 20.0916 103.957 21.2985 102.292 21.4151C100.206 21.5674 98.1685 21.6901 96.077 21.651C96.077 21.6418 96.065 21.6418 96.0591 21.6418ZM93.851 17.998C95.4227 17.0959 96.9644 16.2089 98.5272 15.3129C96.9525 14.4109 95.4137 13.5239 93.851 12.6279V17.998Z" fill="url(#paint2_linear_105_1015)"/>
<path d="M121.5 15C121.5 6.71573 128.216 0 136.5 0C144.784 0 151.5 6.71573 151.5 15C151.5 23.2843 144.784 30 136.5 30C128.216 30 121.5 23.2843 121.5 15Z" fill="#FCF8F4"/>
<path d="M133.161 22.6341C139.954 22.6341 143.668 17.0045 143.668 12.1227C143.668 11.9629 143.665 11.8037 143.658 11.6452C144.381 11.122 145.004 10.4742 145.5 9.73217C144.838 10.0265 144.126 10.2245 143.379 10.3138C144.142 9.85649 144.727 9.13294 145.003 8.27048C144.278 8.70068 143.485 9.00395 142.658 9.16722C141.984 8.44912 141.025 8 139.962 8C137.923 8 136.269 9.65446 136.269 11.6938C136.269 11.9838 136.302 12.2657 136.365 12.5362C133.296 12.3817 130.574 10.9116 128.753 8.67632C128.425 9.24011 128.252 9.88087 128.253 10.5332C128.253 11.8149 128.905 12.9464 129.896 13.6084C129.31 13.5904 128.736 13.432 128.223 13.1463C128.223 13.1618 128.223 13.1769 128.223 13.1935C128.223 14.9826 129.496 16.4764 131.186 16.8149C130.868 16.9014 130.541 16.9451 130.212 16.9449C129.974 16.9449 129.743 16.9215 129.518 16.8783C129.988 18.3462 131.351 19.4144 132.968 19.4442C131.704 20.4353 130.111 21.0256 128.381 21.0256C128.087 21.0258 127.792 21.0088 127.5 20.9744C129.134 22.0224 131.075 22.6341 133.161 22.6341Z" fill="url(#paint3_linear_105_1015)"/>
<defs>
<linearGradient id="paint0_linear_105_1015" x1="151.5" y1="17.924" x2="0.500002" y2="17.9241" gradientUnits="userSpaceOnUse">
<stop stop-color="#007D6E"/>
<stop offset="1" stop-color="#5EB47C"/>
</linearGradient>
<linearGradient id="paint1_linear_105_1015" x1="151.5" y1="17.924" x2="0.500002" y2="17.9241" gradientUnits="userSpaceOnUse">
<stop stop-color="#007D6E"/>
<stop offset="1" stop-color="#5EB47C"/>
</linearGradient>
<linearGradient id="paint2_linear_105_1015" x1="151.5" y1="17.924" x2="0.500002" y2="17.9241" gradientUnits="userSpaceOnUse">
<stop stop-color="#007D6E"/>
<stop offset="1" stop-color="#5EB47C"/>
</linearGradient>
<linearGradient id="paint3_linear_105_1015" x1="151.5" y1="17.924" x2="0.500002" y2="17.9241" gradientUnits="userSpaceOnUse">
<stop stop-color="#007D6E"/>
<stop offset="1" stop-color="#5EB47C"/>
</linearGradient>
</defs>
</svg>
