<svg width="152" height="30" viewBox="0 0 152 30" fill="none" xmlns="http://www.w3.org/2000/svg">
<path d="M0.5 15.0002C0.5 6.71597 7.21573 0.000244141 15.5 0.000244141C23.7843 0.000244141 30.5 6.71597 30.5 15.0002C30.5 23.2845 23.7843 30.0002 15.5 30.0002C7.21573 30.0002 0.5 23.2845 0.5 15.0002Z" fill="#FCF8F4"/>
<path d="M12.3187 14.7275C12.3187 13.1209 13.6207 11.8182 15.2273 11.8182C16.8339 11.8182 18.1366 13.1209 18.1366 14.7275C18.1366 16.3341 16.8339 17.6368 15.2273 17.6368C13.6207 17.6368 12.3187 16.3341 12.3187 14.7275ZM10.7459 14.7275C10.7459 17.2026 12.7522 19.2089 15.2273 19.2089C17.7024 19.2089 19.7086 17.2026 19.7086 14.7275C19.7086 12.2524 17.7024 10.2462 15.2273 10.2462C12.7522 10.2462 10.7459 12.2524 10.7459 14.7275ZM18.8387 10.0685C18.8387 10.6466 19.3075 11.1161 19.8863 11.1161C20.4643 11.1161 20.9338 10.6466 20.9338 10.0685C20.9338 9.49045 20.465 9.02166 19.8863 9.02166C19.3075 9.02166 18.8387 9.49045 18.8387 10.0685ZM11.7011 21.8313C10.8502 21.7925 10.3878 21.6508 10.0804 21.531C9.67298 21.3724 9.38254 21.1834 9.07659 20.8782C8.77135 20.573 8.58172 20.2825 8.42381 19.8751C8.30397 19.5677 8.16227 19.1053 8.1235 18.2544C8.0812 17.3344 8.07274 17.0581 8.07274 14.7275C8.07274 12.397 8.08191 12.1213 8.1235 11.2007C8.16227 10.3498 8.30467 9.88804 8.42381 9.57998C8.58242 9.17252 8.77135 8.88208 9.07659 8.57613C9.38183 8.27089 9.67227 8.08125 10.0804 7.92335C10.3878 7.8035 10.8502 7.66181 11.7011 7.62304C12.6211 7.58074 12.8974 7.57228 15.2273 7.57228C17.5578 7.57228 17.8335 7.58145 18.7541 7.62304C19.605 7.66181 20.0667 7.80421 20.3748 7.92335C20.7823 8.08125 21.0727 8.27089 21.3787 8.57613C21.6839 8.88137 21.8728 9.17252 22.0314 9.57998C22.1513 9.88733 22.293 10.3498 22.3318 11.2007C22.3741 12.1213 22.3825 12.397 22.3825 14.7275C22.3825 17.0574 22.3741 17.3337 22.3318 18.2544C22.293 19.1053 22.1506 19.5677 22.0314 19.8751C21.8728 20.2825 21.6839 20.573 21.3787 20.8782C21.0734 21.1834 20.7823 21.3724 20.3748 21.531C20.0675 21.6508 19.605 21.7925 18.7541 21.8313C17.8342 21.8736 17.5578 21.882 15.2273 21.882C12.8974 21.882 12.6211 21.8736 11.7011 21.8313ZM11.6292 6.05312C10.7001 6.09541 10.0656 6.24275 9.51084 6.45846C8.93701 6.68123 8.45059 6.98012 7.96488 7.46513C7.47988 7.95013 7.18098 8.43655 6.95822 9.01108C6.7425 9.56588 6.59517 10.2003 6.55287 11.1295C6.50987 12.06 6.5 12.3575 6.5 14.7275C6.5 17.0976 6.50987 17.395 6.55287 18.3256C6.59517 19.2547 6.7425 19.8892 6.95822 20.444C7.18098 21.0178 7.47917 21.5049 7.96488 21.9899C8.44989 22.4749 8.93631 22.7731 9.51084 22.9966C10.0663 23.2123 10.7001 23.3596 11.6292 23.4019C12.5604 23.4442 12.8572 23.4548 15.2273 23.4548C17.598 23.4548 17.8948 23.4449 18.8253 23.4019C19.7545 23.3596 20.3889 23.2123 20.9437 22.9966C21.5175 22.7731 22.004 22.4749 22.4897 21.9899C22.9747 21.5049 23.2729 21.0178 23.4963 20.444C23.712 19.8892 23.8601 19.2547 23.9017 18.3256C23.944 17.3943 23.9538 17.0976 23.9538 14.7275C23.9538 12.3575 23.944 12.06 23.9017 11.1295C23.8594 10.2003 23.712 9.56588 23.4963 9.01108C23.2729 8.43725 22.9747 7.95084 22.4897 7.46513C22.0047 6.98012 21.5175 6.68123 20.9444 6.45846C20.3889 6.24275 19.7545 6.09471 18.826 6.05312C17.8955 6.01082 17.598 6.00024 15.228 6.00024C12.8572 6.00024 12.5604 6.01011 11.6292 6.05312Z" fill="url(#paint0_linear_105_905)"/>
<path d="M40.5 15.0002C40.5 6.71597 47.2157 0.000244141 55.5 0.000244141C63.7843 0.000244141 70.5 6.71597 70.5 15.0002C70.5 23.2845 63.7843 30.0002 55.5 30.0002C47.2157 30.0002 40.5 23.2845 40.5 15.0002Z" fill="#FCF8F4"/>
<path d="M63.9545 14.7275C63.9545 9.90758 60.0472 6.00024 55.2273 6.00024C50.4073 6.00024 46.5 9.90758 46.5 14.7275C46.5 18.9606 49.5138 22.4898 53.5127 23.2864V16.6418H52.0894V14.269H53.5127V12.8447C53.5127 10.9089 54.3162 9.75806 56.5995 9.75806H58.5004V12.131H57.3122C56.4233 12.131 56.3645 12.4624 56.3645 13.0812L56.3613 14.2688H58.5137L58.2618 16.6414H56.3613V23.3818C60.6455 22.8259 63.9545 19.1631 63.9545 14.7275Z" fill="url(#paint1_linear_105_905)"/>
<path d="M80.5 15.0002C80.5 6.71597 87.2157 0.000244141 95.5 0.000244141C103.784 0.000244141 110.5 6.71597 110.5 15.0002C110.5 23.2845 103.784 30.0002 95.5 30.0002C87.2157 30.0002 80.5 23.2845 80.5 15.0002Z" fill="#FCF8F4"/>
<path d="M96.0591 21.642L92.3032 21.5733C91.0871 21.5494 89.868 21.5972 88.6758 21.3493C86.8621 20.9789 86.7337 19.163 86.5992 17.6398C86.4139 15.4984 86.4857 13.318 86.8353 11.1945C87.0326 10.0029 87.8093 9.2919 89.0104 9.21453C93.0651 8.93374 97.1467 8.96702 101.192 9.09801C101.62 9.11002 102.05 9.17566 102.471 9.25037C104.551 9.61477 104.602 11.6726 104.736 13.4049C104.871 15.1551 104.814 16.9143 104.557 18.6526C104.351 20.0918 103.957 21.2988 102.292 21.4153C100.206 21.5677 98.1685 21.6903 96.077 21.6513C96.077 21.642 96.065 21.642 96.0591 21.642ZM93.851 17.9982C95.4227 17.0962 96.9644 16.2092 98.5272 15.3132C96.9525 14.4111 95.4137 13.5241 93.851 12.6281V17.9982Z" fill="url(#paint2_linear_105_905)"/>
<path d="M121.5 15.0002C121.5 6.71597 128.216 0.000244141 136.5 0.000244141C144.784 0.000244141 151.5 6.71597 151.5 15.0002C151.5 23.2845 144.784 30.0002 136.5 30.0002C128.216 30.0002 121.5 23.2845 121.5 15.0002Z" fill="#FCF8F4"/>
<path d="M133.161 22.6344C139.954 22.6344 143.668 17.0048 143.668 12.123C143.668 11.9631 143.665 11.804 143.658 11.6455C144.381 11.1223 145.004 10.4745 145.5 9.73242C144.838 10.0267 144.126 10.2248 143.379 10.3141C144.142 9.85673 144.727 9.13318 145.003 8.27072C144.278 8.70092 143.485 9.0042 142.658 9.16746C141.984 8.44937 141.025 8.00024 139.962 8.00024C137.923 8.00024 136.269 9.65471 136.269 11.6941C136.269 11.984 136.302 12.266 136.365 12.5365C133.296 12.382 130.574 10.9119 128.753 8.67656C128.425 9.24036 128.252 9.88112 128.253 10.5334C128.253 11.8151 128.905 12.9466 129.896 13.6086C129.31 13.5907 128.736 13.4322 128.223 13.1465C128.223 13.162 128.223 13.1771 128.223 13.1937C128.223 14.9829 129.496 16.4767 131.186 16.8152C130.868 16.9016 130.541 16.9453 130.212 16.9451C129.974 16.9451 129.743 16.9218 129.518 16.8786C129.988 18.3464 131.351 19.4146 132.968 19.4445C131.704 20.4355 130.111 21.0258 128.381 21.0258C128.087 21.0261 127.792 21.009 127.5 20.9747C129.134 22.0226 131.075 22.6344 133.161 22.6344Z" fill="url(#paint3_linear_105_905)"/>
<defs>
<linearGradient id="paint0_linear_105_905" x1="151.5" y1="17.9243" x2="0.500002" y2="17.9243" gradientUnits="userSpaceOnUse">
<stop stop-color="#007D6E"/>
<stop offset="1" stop-color="#5EB47C"/>
</linearGradient>
<linearGradient id="paint1_linear_105_905" x1="151.5" y1="17.9243" x2="0.500002" y2="17.9243" gradientUnits="userSpaceOnUse">
<stop stop-color="#007D6E"/>
<stop offset="1" stop-color="#5EB47C"/>
</linearGradient>
<linearGradient id="paint2_linear_105_905" x1="151.5" y1="17.9243" x2="0.500002" y2="17.9243" gradientUnits="userSpaceOnUse">
<stop stop-color="#007D6E"/>
<stop offset="1" stop-color="#5EB47C"/>
</linearGradient>
<linearGradient id="paint3_linear_105_905" x1="151.5" y1="17.9243" x2="0.500002" y2="17.9243" gradientUnits="userSpaceOnUse">
<stop stop-color="#007D6E"/>
<stop offset="1" stop-color="#5EB47C"/>
</linearGradient>
</defs>
</svg>
